<svg id="svg1047" enable-background="new 0 0 183.019 132.013" version="1.1" width="4.76rem" height="3.4rem" viewBox="0 0 154 90" xmlns="http://www.w3.org/2000/svg">
 <g id="g1074" transform="translate(-17 1.7)">
  <polygon id="polygon1009" transform="translate(0 -27)" points="163 26 163 114 18 114 18 26" style="fill:#fff"/>
  <polygon id="polygon1011" transform="translate(0 -27)" points="162 27 162 113 19 113 19 27" style="fill:#005daa"/>
  <polygon id="polygon1013" transform="translate(0 -27)" points="161 27 76 113 77 113 162 28 162 27" style="fill:#fff"/>
  <polygon id="polygon1015" transform="translate(0 -27)" points="23 113 24 113 30 27 29 27" style="fill:#fff"/>
  <polygon id="polygon1017" transform="translate(0 -27)" points="28 113 29 113 41 27 40 27" style="fill:#fff"/>
  <polygon id="polygon1019" transform="translate(0 -27)" points="33 113 34 113 53 27 52 27" style="fill:#fff"/>
  <polygon id="polygon1021" transform="translate(0 -27)" points="38 113 39 113 67 27 66 27" style="fill:#fff"/>
  <polygon id="polygon1023" transform="translate(0 -27)" points="43 113 44 113 79 27 78 27" style="fill:#fff"/>
  <polygon id="polygon1025" transform="translate(0 -27)" points="49 113 50 113 94 27 93 27" style="fill:#fff"/>
  <polygon id="polygon1027" transform="translate(0 -27)" points="59 113 116 27 115 27 58 113" style="fill:#fff"/>
  <polygon id="polygon1029" transform="translate(0 -27)" points="67 113 137 27 136 27 66 113" style="fill:#fff"/>
  <polygon id="polygon1031" transform="translate(0 -27)" points="94 113 162 60 162 58 93 113" style="fill:#fff"/>
  <polygon id="polygon1033" transform="translate(0 -27)" points="114 113 162 83 162 82 112 113" style="fill:#fff"/>
  <polygon id="polygon1035" transform="translate(0 -27)" points="146 113 162 106 162 105 144 113" style="fill:#fff"/>
  <polygon id="polygon1037" transform="translate(0 -27)" points="43 39 46 39 48 38 51 38 54 38 57 39 59 39 62 40 62 48 61 46 59 45 58 44 57 43 55 42 53 42 51 42 49 42 48 42 46 43 45 43 44 44 43 45 41 46 41 47 40 49 39 50 38 54 37 58 37 62 37 66 38 71 39 74 40 76 41 77 42 79 43 80 44 81 45 82 47 82 48 83 50 83 52 83 53 83 55 83 58 82 60 81 62 80 64 83 62 85 59 86 58 86 56 87 53 87 51 87 48 87 45 87 43 86 40 85 38 84 36 83 34 82 33 81 31 79 30 77 28 75 27 73 27 71 26 68 26 66 26 63 26 60 26 58 27 55 28 53 29 51 30 49 31 47 33 45 35 44 37 42 39 41 41 40" stroke-miterlimit="10" style="fill:#fff;stroke-linecap:square;stroke-miterlimit:10;stroke-width:.5;stroke:#fff"/>
  <path id="path1039" d="m99 36v3.2l-0.5 3-0.5 2.5-1 2-0.75 2-2.5 3-3 2-1.5 0.5-3.5 1-3.5 0.5h-3.2v-40h3.2l5.2 0.75 1.8 0.5 1.5 0.75 3 2 2.5 3 1 2 0.75 2.2 0.5 2.5 0.5 3zm-12 24v0l3.5-0.25 3.8-1 2-0.5 2-1 1.8-1 1.8-1.2 1.8-1.5 1.5-1.8 2.5-4 1-2.5 0.75-2.8 0.5-3v-6.5l-0.5-3.2-0.75-2.7-1-2.5-2.5-4-1.5-1.7-1.8-1.2-2-1.2-1.8-1-2-0.75-4.2-1-2-0.25-4-0.25h-17v47z" stroke-miterlimit="10" style="fill:#fff;stroke-linecap:square;stroke-miterlimit:10;stroke-width:.5;stroke:#fff"/>
  <polygon id="polygon1041" transform="translate(0 -27)" points="133 39 136 39 138 38 141 38 144 38 147 39 150 39 152 40 152 48 151 46 150 45 149 44 147 43 145 42 143 42 141 42 140 42 138 42 137 43 135 43 134 44 133 45 132 46 131 47 130 49 129 50 128 54 127 58 127 62 127 66 128 71 129 74 130 76 131 77 132 79 133 80 134 81 136 82 137 82 139 83 140 83 142 83 144 83 145 83 148 82 150 81 152 80 154 83 152 85 150 86 148 86 146 87 144 87 141 87 138 87 136 87 133 86 131 85 129 84 127 83 125 82 123 81 121 79 120 77 119 75 118 73 117 71 116 68 116 66 116 63 116 60 116 58 117 55 118 53 119 51 120 49 122 47 123 45 125 44 127 42 129 41 131 40" stroke-miterlimit="10" style="fill:#fff;stroke-linecap:square;stroke-miterlimit:10;stroke-width:.5;stroke:#fff"/>
  <polygon id="polygon1043" transform="translate(0 -27)" points="166 111 166 113 165 113 165 111 165 111 165 111 167 111 167 111" style="fill:#005daa"/>
  <polygon id="polygon1045" transform="translate(0 -27)" points="167 113 167 111 167 111 168 113 168 111 169 111 169 113 169 113 169 112 169 111 168 113 168 113 167 111 167 112 167 113" style="fill:#005daa"/>
 </g>
</svg>
