<svg xmlns="http://www.w3.org/2000/svg" xmlns:xlink="http://www.w3.org/1999/xlink" version="1.1" id="Layer_1" x="0" y="0" width="22.5rem" height="3rem"  viewBox="64.21 258.67 670.87 89.61" enable-background="new 64.205 258.667 670.865 89.614" xml:space="preserve"><path fill="#FFFFFF" d="M64.21 258.67h145.48v88.96H64.21V258.67z"/><path fill="#105EAB" d="M65.63 260.12H208.26v85.96H65.63V260.12z"/><polygon fill="#FFFFFF" points="124.18 346.07 208.23 260.92 208.23 260.07 207.81 260.07 122.93 346.07 "/><polygon fill="#FFFFFF" points="71.19 346.07 76.87 260.07 75.98 260.07 70.3 346.07 "/><polygon fill="#FFFFFF" points="75.74 346.07 88.01 260.07 87.1 260.07 74.83 346.07 "/><polygon fill="#FFFFFF" points="80.6 346.07 99.79 260.07 98.89 260.07 79.68 346.07 "/><polygon fill="#FFFFFF" points="85.94 346.07 113.34 260.07 112.41 260.07 85.01 346.07 "/><polygon fill="#FFFFFF" points="90.98 346.07 126.18 260.07 125.21 260.07 90.01 346.07 "/><polygon fill="#FFFFFF" points="96.77 346.07 140.79 260.07 139.81 260.07 95.76 346.07 "/><polygon fill="#FFFFFF" points="162.79 260.07 161.72 260.07 104.73 346.07 105.79 346.07 "/><polygon fill="#FFFFFF" points="183.12 260.07 181.99 260.07 112.7 346.07 113.85 346.07 "/><polygon fill="#FFFFFF" points="208.23 292.61 208.23 291.48 139.52 346.07 140.94 346.07 "/><polygon fill="#FFFFFF" points="208.23 316.27 208.23 315.22 158.87 346.07 160.56 346.07 "/><polygon fill="#FFFFFF" points="208.23 338.59 208.23 337.59 190.07 346.07 192.17 346.07 "/><path fill="#FFFFFF" d="M108.21 311.77c-1.76 1.69-6.2 3.52-9.46 3.48 -9.48-0.01-13.9-8.06-13.98-20.36 0.06-11.64 4.84-19.05 13.05-19.06 5.87 0.01 8.72 3.41 10.28 5.44l1.72 2.29v-10.58l-0.55-0.25c-3.38-1.57-7.68-2.31-11.59-2.32 -14.73 0.03-25.98 10.59-26 25.5 0.02 15.29 10.65 24.9 25.87 24.92h0.08c7.56 0 11.43-2.28 13.48-3.85l0.61-0.46 -2.52-5.66L108.21 311.77zM149.49 275.9c-4.93-3.62-11.1-4.69-16.37-4.69h-17.99v48.74h19.17c9.3-0.02 23.66-5.92 23.68-24.5C157.99 285.72 154.44 279.52 149.49 275.9zM126.96 314.3v-37.58c8.7 0.23 17.97 1.29 18.13 18.93C144.95 312.78 135.47 314.07 126.96 314.3zM199.02 310.86l-0.98 0.92c-1.77 1.69-6.19 3.51-9.44 3.48 -9.48 0-13.91-8.06-13.99-20.36 0.06-11.65 4.85-19.05 13.07-19.07 5.86 0.01 8.72 3.41 10.25 5.44l1.72 2.32v-10.61l-0.55-0.26c-3.37-1.58-7.66-2.31-11.59-2.31 -14.73 0.03-25.95 10.59-25.97 25.5 0.02 15.3 10.62 24.89 25.86 24.92h0.12c7.53 0 11.39-2.28 13.44-3.85l0.61-0.46L199.02 310.86zM210.8 343.68h1.72v0.25h-0.72v1.85h-0.27v-1.85h-0.73V343.68zM214.52 345.78v-1.26c0-0.04 0-0.32 0-0.52l0 0 -0.6 1.78h-0.28l-0.59-1.77h-0.01c0 0.2 0.01 0.47 0.01 0.52v1.26h-0.28v-2.1h0.4l0.61 1.78h0.01l0.59-1.78h0.41v2.1H214.52z"/><path d="M220.84 315.35c0.19-1.68 0.76-3.15 1.71-4.43 0.95-1.28 2.14-2.26 3.57-2.95 1.43-0.69 2.92-1.03 4.48-1.03 0.86 0 1.69 0.1 2.51 0.31 0.82 0.21 1.6 0.52 2.34 0.94 0.75 0.42 1.44 0.95 2.08 1.6 0.64 0.64 1.2 1.4 1.69 2.27h-2.09c-0.54-0.71-1.17-1.31-1.87-1.8 -0.7-0.49-1.45-0.85-2.22-1.08 -0.78-0.23-1.55-0.35-2.33-0.35 -1.04 0-2.04 0.19-3 0.56 -0.96 0.37-1.83 0.91-2.58 1.61 -0.76 0.7-1.35 1.54-1.79 2.53 -0.44 0.98-0.66 2.06-0.66 3.23 0.02 1.51 0.4 2.86 1.15 4.06 0.75 1.2 1.73 2.14 2.95 2.81 1.22 0.67 2.51 1.02 3.88 1.03 0.8-0.02 1.6-0.16 2.39-0.41 0.79-0.25 1.55-0.63 2.26-1.14 0.71-0.51 1.35-1.15 1.91-1.92h2.09c-0.68 1.18-1.49 2.15-2.4 2.94 -0.92 0.78-1.9 1.36-2.96 1.73 -1.06 0.38-2.15 0.56-3.28 0.56 -1.25 0-2.46-0.23-3.65-0.69 -1.18-0.46-2.25-1.13-3.19-1.99 -0.94-0.87-1.69-1.91-2.23-3.12 -0.54-1.22-0.81-2.54-0.81-3.98C220.76 316.19 220.79 315.77 220.84 315.35zM241.05 319.05c0.03-1.12 0.25-2.12 0.66-3.01 0.41-0.89 0.96-1.65 1.65-2.28 0.69-0.63 1.46-1.1 2.31-1.44 0.84-0.33 1.71-0.5 2.6-0.51 1.19 0 2.34 0.29 3.46 0.87 1.12 0.58 2.03 1.45 2.74 2.61 0.71 1.16 1.07 2.54 1.07 4.15v0.35h-12.6c0.08 1.03 0.4 1.91 0.95 2.64 0.55 0.73 1.22 1.27 2.01 1.64 0.79 0.36 1.56 0.54 2.32 0.54 0.68 0 1.36-0.13 2.05-0.4 0.69-0.27 1.3-0.64 1.83-1.11 0.53-0.47 0.9-0.99 1.12-1.56h1.94c-0.39 1.07-0.96 1.98-1.71 2.72 -0.75 0.74-1.59 1.29-2.51 1.65 -0.93 0.35-1.86 0.53-2.81 0.53 -1.24-0.05-2.4-0.38-3.48-0.99 -1.08-0.61-1.95-1.47-2.6-2.57C241.38 321.75 241.05 320.48 241.05 319.05zM253.7 318.11c-0.16-0.81-0.49-1.55-0.99-2.23 -0.5-0.69-1.14-1.23-1.9-1.64 -0.76-0.41-1.59-0.61-2.49-0.61 -1.19 0-2.19 0.28-2.98 0.85 -0.79 0.56-1.37 1.2-1.75 1.9 -0.37 0.7-0.59 1.28-0.65 1.74H253.7L253.7 318.11zM257.96 326.11v-13.95h1.79v2.09c0.46-0.77 1.09-1.36 1.89-1.77 0.8-0.41 1.65-0.62 2.55-0.62 0.78 0 1.54 0.14 2.27 0.42 0.73 0.28 1.38 0.69 1.96 1.23 0.58 0.54 1.04 1.21 1.38 2.02 0.34 0.81 0.51 1.71 0.51 2.7v7.88h-1.84v-7.88c0-0.96-0.21-1.78-0.62-2.47 -0.41-0.68-0.95-1.19-1.62-1.53 -0.67-0.34-1.38-0.51-2.14-0.51 -0.74 0-1.44 0.16-2.08 0.49s-1.16 0.81-1.56 1.46c-0.4 0.65-0.59 1.43-0.59 2.33v8.11H257.96zM274.37 326.11v-12.24h-2.93v-1.7h2.93v-4.92h1.89v4.92h3.24v1.7h-3.24v12.24H274.37zM279.94 319.05c0.03-1.12 0.25-2.12 0.66-3.01 0.41-0.89 0.96-1.65 1.65-2.28 0.69-0.63 1.46-1.1 2.31-1.44 0.84-0.33 1.71-0.5 2.6-0.51 1.19 0 2.34 0.29 3.46 0.87 1.12 0.58 2.03 1.45 2.74 2.61 0.71 1.16 1.07 2.54 1.07 4.15v0.35H281.82c0.08 1.03 0.4 1.91 0.95 2.64 0.55 0.73 1.22 1.27 2.01 1.64 0.79 0.36 1.56 0.54 2.32 0.54 0.68 0 1.36-0.13 2.05-0.4 0.69-0.27 1.3-0.64 1.83-1.11 0.53-0.47 0.9-0.99 1.12-1.56h1.94c-0.39 1.07-0.96 1.98-1.71 2.72 -0.75 0.74-1.59 1.29-2.51 1.65 -0.93 0.35-1.86 0.53-2.81 0.53 -1.24-0.05-2.4-0.38-3.48-0.99 -1.08-0.61-1.95-1.47-2.6-2.57C280.26 321.75 279.94 320.48 279.94 319.05zM292.58 318.11c-0.16-0.81-0.49-1.55-0.99-2.23 -0.5-0.69-1.14-1.23-1.9-1.64 -0.77-0.41-1.59-0.61-2.49-0.61 -1.19 0-2.19 0.28-2.98 0.85 -0.79 0.56-1.37 1.2-1.75 1.9 -0.37 0.7-0.59 1.28-0.65 1.74H292.58L292.58 318.11zM296.86 326.11v-14h1.76v2.09c0.78-1.6 2.13-2.4 4.08-2.4v1.91c-0.44 0-0.9 0.09-1.37 0.28 -0.47 0.19-0.91 0.45-1.3 0.8 -0.4 0.35-0.71 0.75-0.95 1.21 -0.24 0.46-0.35 0.96-0.35 1.49v8.61h-1.86V326.11zM303.87 316.25c-0.02-0.14-0.02-0.32-0.02-0.56 0-0.81 0.2-1.5 0.6-2.08 0.4-0.58 0.91-1.02 1.52-1.31 0.61-0.29 1.2-0.44 1.78-0.44 0.47 0 0.94 0.08 1.4 0.24 0.47 0.16 0.89 0.39 1.27 0.7 0.39 0.31 0.7 0.71 0.94 1.18 0.24 0.48 0.37 1.02 0.4 1.63h-1.91c-0.03-0.67-0.25-1.16-0.64-1.47 -0.4-0.31-0.88-0.47-1.45-0.47 -0.5 0-0.97 0.16-1.4 0.49 -0.43 0.33-0.66 0.81-0.69 1.44 0 0.02 0.03 0.12 0.07 0.31 0.04 0.19 0.07 0.32 0.08 0.38 0.13 0.46 0.57 0.85 1.31 1.15 0.75 0.31 1.5 0.61 2.26 0.89 0.76 0.28 1.4 0.7 1.92 1.25 0.52 0.55 0.79 1.34 0.79 2.36 0 0.18-0.02 0.43-0.06 0.77 -0.1 0.86-0.39 1.57-0.85 2.12 -0.46 0.56-1.01 0.96-1.63 1.21s-1.24 0.37-1.85 0.37c-0.84 0-1.6-0.19-2.26-0.58 -0.66-0.39-1.18-0.91-1.55-1.58 -0.37-0.67-0.55-1.41-0.55-2.22l1.89-0.06c0.03 0.8 0.3 1.45 0.81 1.95 0.52 0.5 1.1 0.76 1.77 0.78 0.66-0.06 1.23-0.31 1.7-0.77 0.47-0.45 0.7-1 0.7-1.65 0-0.57-0.19-1.09-0.56-1.56 -0.37-0.47-0.95-0.8-1.73-0.99 -1.06-0.29-1.97-0.69-2.73-1.2C304.42 318.02 303.99 317.26 303.87 316.25zM321.95 326.11v-12.21h-2.14v-1.68h2.14c0-3.28 1.79-4.92 5.38-4.92v1.74c-1.06 0-1.91 0.22-2.55 0.65 -0.64 0.43-0.97 1.21-0.99 2.34 0.03 0.07 0.05 0.14 0.05 0.21h3.49v1.68h-3.49v12.21H321.95L321.95 326.11zM327.71 318.9c0.01-0.92 0.21-1.8 0.58-2.65 0.37-0.85 0.9-1.6 1.57-2.26 0.67-0.66 1.46-1.18 2.38-1.56 0.92-0.38 1.92-0.57 2.99-0.57 1.02 0 2.07 0.29 3.14 0.88 1.07 0.59 1.97 1.39 2.7 2.4 0.73 1.01 1.14 2.13 1.23 3.35 0 0.06 0 0.15 0.01 0.27 0.01 0.12 0.01 0.21 0.01 0.26 0 1.03-0.19 1.99-0.58 2.89 -0.39 0.9-0.92 1.69-1.61 2.36 -0.69 0.68-1.48 1.21-2.36 1.58 -0.89 0.37-1.82 0.56-2.79 0.56 -1.18 0-2.33-0.29-3.45-0.88 -1.12-0.59-2.04-1.45-2.75-2.6C328.06 321.79 327.71 320.44 327.71 318.9zM329.55 318.99c0 1.11 0.25 2.09 0.74 2.93 0.5 0.84 1.16 1.49 2 1.96 0.84 0.47 1.75 0.73 2.74 0.77 0.83 0 1.65-0.22 2.47-0.66 0.82-0.44 1.51-1.1 2.04-1.96 0.54-0.86 0.81-1.87 0.81-3.04 0-0.68-0.14-1.33-0.42-1.98 -0.28-0.64-0.67-1.21-1.17-1.72 -0.5-0.5-1.07-0.9-1.72-1.19 -0.65-0.29-1.32-0.44-2.01-0.44 -0.94 0.02-1.82 0.26-2.66 0.72s-1.51 1.09-2.03 1.9C329.83 317.09 329.56 317.99 329.55 318.99zM344.79 326.11v-14h1.76v2.09c0.78-1.6 2.13-2.4 4.08-2.4v1.91c-0.44 0-0.9 0.09-1.37 0.28 -0.47 0.19-0.91 0.45-1.3 0.8 -0.4 0.35-0.71 0.75-0.95 1.21 -0.24 0.46-0.35 0.96-0.35 1.49v8.61h-1.86V326.11zM359.32 326.11v-18.86h5.13c1.77 0 3.33 0.25 4.69 0.75 1.36 0.5 2.49 1.19 3.4 2.08 0.91 0.89 1.59 1.91 2.04 3.06 0.45 1.16 0.68 2.4 0.68 3.72 -0.01 1.4-0.29 2.68-0.83 3.83 -0.54 1.15-1.28 2.14-2.22 2.95 -0.94 0.81-1.99 1.43-3.15 1.85 -1.17 0.42-2.37 0.63-3.61 0.63H359.32zM361.2 308.93v15.45h2.91c2.62 0 4.77-0.61 6.47-1.85 1.69-1.23 2.62-3.12 2.79-5.67 0-1.05-0.18-2.05-0.54-3s-0.91-1.8-1.65-2.54c-0.73-0.74-1.67-1.32-2.8-1.75 -1.13-0.42-2.44-0.64-3.93-0.64L361.2 308.93 361.2 308.93zM377.99 310.48v-3.24h1.89v3.24H377.99zM377.99 326.11v-13.95h1.89v13.95H377.99zM382.63 316.25c-0.02-0.14-0.02-0.32-0.02-0.56 0-0.81 0.2-1.5 0.6-2.08 0.4-0.58 0.91-1.02 1.52-1.31 0.61-0.29 1.2-0.44 1.78-0.44 0.47 0 0.94 0.08 1.4 0.24 0.47 0.16 0.89 0.39 1.27 0.7 0.39 0.31 0.7 0.71 0.94 1.18 0.24 0.48 0.37 1.02 0.4 1.63h-1.91c-0.03-0.67-0.25-1.16-0.64-1.47 -0.4-0.31-0.88-0.47-1.45-0.47 -0.5 0-0.97 0.16-1.4 0.49 -0.43 0.33-0.66 0.81-0.69 1.44 0 0.02 0.03 0.12 0.07 0.31 0.04 0.19 0.07 0.32 0.08 0.38 0.13 0.46 0.56 0.85 1.31 1.15 0.75 0.31 1.5 0.61 2.26 0.89 0.76 0.28 1.4 0.7 1.92 1.25 0.52 0.55 0.78 1.34 0.78 2.36 0 0.18-0.02 0.43-0.06 0.77 -0.1 0.86-0.39 1.57-0.85 2.12 -0.46 0.56-1.01 0.96-1.64 1.21s-1.24 0.37-1.85 0.37c-0.84 0-1.6-0.19-2.26-0.58 -0.66-0.39-1.18-0.91-1.55-1.58 -0.37-0.67-0.55-1.41-0.55-2.22l1.89-0.06c0.02 0.8 0.3 1.45 0.81 1.95s1.11 0.76 1.77 0.78c0.66-0.06 1.23-0.31 1.7-0.77 0.47-0.45 0.7-1 0.7-1.65 0-0.57-0.19-1.09-0.56-1.56 -0.37-0.47-0.95-0.8-1.73-0.99 -1.06-0.29-1.97-0.69-2.73-1.2S382.75 317.26 382.63 316.25zM392.48 319.05c0.03-1.12 0.25-2.12 0.66-3.01 0.41-0.89 0.96-1.65 1.65-2.28 0.69-0.63 1.46-1.1 2.31-1.44 0.85-0.33 1.71-0.5 2.6-0.51 1.19 0 2.35 0.29 3.46 0.87 1.12 0.58 2.03 1.45 2.74 2.61s1.07 2.54 1.07 4.15v0.35h-12.6c0.08 1.03 0.4 1.91 0.95 2.64 0.55 0.73 1.22 1.27 2.01 1.64 0.79 0.36 1.56 0.54 2.32 0.54 0.68 0 1.36-0.13 2.05-0.4 0.69-0.27 1.3-0.64 1.83-1.11 0.53-0.47 0.9-0.99 1.12-1.56h1.94c-0.39 1.07-0.96 1.98-1.71 2.72 -0.75 0.74-1.59 1.29-2.52 1.65 -0.93 0.35-1.86 0.53-2.81 0.53 -1.24-0.05-2.4-0.38-3.48-0.99 -1.08-0.61-1.95-1.47-2.6-2.57C392.81 321.75 392.48 320.48 392.48 319.05zM405.13 318.11c-0.16-0.81-0.49-1.55-0.99-2.23 -0.5-0.69-1.14-1.23-1.9-1.64 -0.77-0.41-1.59-0.61-2.49-0.61 -1.19 0-2.19 0.28-2.98 0.85 -0.79 0.56-1.37 1.2-1.75 1.9 -0.37 0.7-0.59 1.28-0.65 1.74H405.13L405.13 318.11zM408.7 319.23c0.01-1.11 0.23-2.13 0.65-3.06 0.42-0.93 0.99-1.71 1.7-2.36 0.71-0.65 1.51-1.14 2.4-1.48 0.89-0.34 1.79-0.52 2.71-0.52 2.55 0.06 4.38 1.08 5.48 3.06v-2.71h1.84v13.95h-1.84v-2.65c-0.52 0.94-1.28 1.66-2.27 2.18 -0.99 0.52-2.11 0.77-3.37 0.77 -0.95-0.02-1.87-0.21-2.74-0.55 -0.87-0.34-1.66-0.83-2.35-1.46 -0.69-0.63-1.23-1.39-1.63-2.27C408.9 321.25 408.7 320.28 408.7 319.23zM410.63 318.79c0 1.15 0.25 2.16 0.76 3.04 0.5 0.88 1.17 1.56 1.99 2.03 0.83 0.47 1.7 0.72 2.63 0.74 1.07 0 2.03-0.26 2.89-0.77 0.86-0.51 1.53-1.18 2.02-2.02 0.49-0.83 0.73-1.69 0.73-2.59 0-0.99-0.24-1.9-0.71-2.73 -0.47-0.83-1.12-1.5-1.95-2 -0.83-0.5-1.73-0.77-2.72-0.82 -1.07 0-2.04 0.27-2.9 0.8 -0.86 0.54-1.53 1.2-2.01 2.01S410.63 318.06 410.63 318.79zM426.23 316.25c-0.02-0.14-0.02-0.32-0.02-0.56 0-0.81 0.2-1.5 0.6-2.08 0.4-0.58 0.91-1.02 1.52-1.31 0.61-0.29 1.2-0.44 1.78-0.44 0.47 0 0.94 0.08 1.4 0.24 0.47 0.16 0.89 0.39 1.27 0.7 0.38 0.31 0.69 0.71 0.94 1.18 0.24 0.48 0.37 1.02 0.4 1.63h-1.91c-0.03-0.67-0.25-1.16-0.65-1.47 -0.4-0.31-0.88-0.47-1.45-0.47 -0.5 0-0.97 0.16-1.4 0.49 -0.43 0.33-0.66 0.81-0.69 1.44 0.01 0.02 0.03 0.12 0.07 0.31 0.04 0.19 0.07 0.32 0.08 0.38 0.13 0.46 0.57 0.85 1.31 1.15 0.75 0.31 1.5 0.61 2.26 0.89 0.76 0.28 1.4 0.7 1.92 1.25 0.52 0.55 0.78 1.34 0.78 2.36 0 0.18-0.02 0.43-0.06 0.77 -0.1 0.86-0.39 1.57-0.85 2.12 -0.46 0.56-1.01 0.96-1.63 1.21s-1.24 0.37-1.85 0.37c-0.84 0-1.6-0.19-2.26-0.58 -0.66-0.39-1.18-0.91-1.55-1.58s-0.55-1.41-0.55-2.22l1.89-0.06c0.03 0.8 0.3 1.45 0.81 1.95s1.11 0.76 1.77 0.78c0.66-0.06 1.23-0.31 1.7-0.77s0.7-1 0.7-1.65c0-0.57-0.19-1.09-0.56-1.56 -0.38-0.47-0.95-0.8-1.73-0.99 -1.06-0.29-1.97-0.69-2.73-1.2C426.78 318.02 426.35 317.26 426.23 316.25zM436.08 319.05c0.03-1.12 0.25-2.12 0.66-3.01 0.41-0.89 0.96-1.65 1.65-2.28 0.69-0.63 1.46-1.1 2.31-1.44 0.85-0.33 1.71-0.5 2.6-0.51 1.19 0 2.35 0.29 3.46 0.87 1.12 0.58 2.03 1.45 2.74 2.61 0.71 1.16 1.07 2.54 1.07 4.15v0.35h-12.6c0.08 1.03 0.4 1.91 0.95 2.64 0.55 0.73 1.22 1.27 2.01 1.64 0.79 0.36 1.56 0.54 2.32 0.54 0.68 0 1.36-0.13 2.05-0.4 0.69-0.27 1.3-0.64 1.83-1.11 0.53-0.47 0.9-0.99 1.12-1.56h1.94c-0.39 1.07-0.96 1.98-1.71 2.72 -0.75 0.74-1.59 1.29-2.51 1.65 -0.93 0.35-1.86 0.53-2.81 0.53 -1.24-0.05-2.4-0.38-3.48-0.99 -1.08-0.61-1.95-1.47-2.6-2.57C436.4 321.75 436.08 320.48 436.08 319.05zM448.72 318.11c-0.16-0.81-0.49-1.55-0.99-2.23 -0.51-0.69-1.14-1.23-1.9-1.64 -0.77-0.41-1.59-0.61-2.49-0.61 -1.19 0-2.19 0.28-2.98 0.85 -0.79 0.56-1.38 1.2-1.75 1.9 -0.37 0.7-0.59 1.28-0.65 1.74H448.72L448.72 318.11zM459.31 315.35c0.19-1.68 0.76-3.15 1.71-4.43 0.95-1.28 2.14-2.26 3.57-2.95 1.43-0.69 2.92-1.03 4.48-1.03 0.85 0 1.69 0.1 2.51 0.31 0.82 0.21 1.6 0.52 2.34 0.94 0.75 0.42 1.44 0.95 2.08 1.6 0.64 0.64 1.2 1.4 1.69 2.27h-2.09c-0.54-0.71-1.17-1.31-1.87-1.8 -0.71-0.49-1.44-0.85-2.22-1.08 -0.77-0.23-1.55-0.35-2.33-0.35 -1.04 0-2.04 0.19-3 0.56 -0.96 0.37-1.83 0.91-2.58 1.61 -0.76 0.7-1.35 1.54-1.79 2.53 -0.44 0.98-0.66 2.06-0.66 3.23 0.02 1.51 0.4 2.86 1.15 4.06 0.75 1.2 1.73 2.14 2.95 2.81 1.22 0.67 2.51 1.02 3.88 1.03 0.8-0.02 1.6-0.16 2.39-0.41s1.55-0.63 2.26-1.14c0.71-0.51 1.35-1.15 1.9-1.92h2.09c-0.68 1.18-1.48 2.15-2.4 2.94 -0.92 0.78-1.9 1.36-2.96 1.73 -1.06 0.38-2.15 0.56-3.28 0.56 -1.25 0-2.47-0.23-3.65-0.69 -1.18-0.46-2.25-1.13-3.19-1.99 -0.94-0.87-1.69-1.91-2.23-3.12 -0.54-1.22-0.81-2.54-0.81-3.98C459.22 316.19 459.25 315.77 459.31 315.35zM479.5 318.9c0.01-0.92 0.21-1.8 0.58-2.65 0.37-0.85 0.9-1.6 1.56-2.26 0.67-0.66 1.47-1.18 2.38-1.56s1.92-0.57 2.99-0.57c1.02 0 2.07 0.29 3.14 0.88 1.07 0.59 1.97 1.39 2.7 2.4 0.73 1.01 1.14 2.13 1.23 3.35 0 0.06 0 0.15 0.01 0.27 0.01 0.12 0.02 0.21 0.02 0.26 0 1.03-0.19 1.99-0.58 2.89 -0.39 0.9-0.92 1.69-1.61 2.36 -0.69 0.68-1.48 1.21-2.36 1.58 -0.89 0.37-1.81 0.56-2.79 0.56 -1.18 0-2.33-0.29-3.45-0.88 -1.12-0.59-2.04-1.45-2.75-2.6C479.85 321.79 479.5 320.44 479.5 318.9zM481.33 318.99c0 1.11 0.25 2.09 0.74 2.93 0.5 0.84 1.16 1.49 2 1.96 0.84 0.47 1.75 0.73 2.74 0.77 0.82 0 1.65-0.22 2.47-0.66 0.82-0.44 1.51-1.1 2.04-1.96 0.54-0.86 0.81-1.87 0.81-3.04 0-0.68-0.14-1.33-0.42-1.98 -0.28-0.64-0.67-1.21-1.17-1.72 -0.5-0.5-1.07-0.9-1.72-1.19 -0.65-0.29-1.32-0.44-2.01-0.44 -0.94 0.02-1.82 0.26-2.66 0.72 -0.83 0.46-1.51 1.09-2.02 1.9C481.62 317.09 481.35 317.99 481.33 318.99zM496.56 326.11v-13.95h1.79v2.09c0.46-0.77 1.09-1.36 1.89-1.77 0.8-0.41 1.65-0.62 2.54-0.62 0.79 0 1.54 0.14 2.27 0.42s1.38 0.69 1.96 1.23c0.58 0.54 1.04 1.21 1.38 2.02 0.34 0.81 0.51 1.71 0.51 2.7v7.88h-1.83v-7.88c0-0.96-0.21-1.78-0.62-2.47 -0.41-0.68-0.95-1.19-1.62-1.53 -0.67-0.34-1.39-0.51-2.15-0.51 -0.74 0-1.44 0.16-2.08 0.49 -0.64 0.33-1.16 0.81-1.56 1.46 -0.4 0.65-0.59 1.43-0.59 2.33v8.11H496.56zM512.97 326.11v-12.24h-2.93v-1.7h2.93v-4.92h1.89v4.92h3.24v1.7h-3.24v12.24H512.97zM519.78 326.11v-14h1.76v2.09c0.78-1.6 2.14-2.4 4.08-2.4v1.91c-0.44 0-0.9 0.09-1.37 0.28 -0.47 0.19-0.91 0.45-1.3 0.8 -0.4 0.35-0.71 0.75-0.95 1.21 -0.24 0.46-0.35 0.96-0.35 1.49v8.61h-1.86V326.11zM525.97 318.9c0.01-0.92 0.21-1.8 0.58-2.65 0.37-0.85 0.9-1.6 1.57-2.26 0.67-0.66 1.47-1.18 2.38-1.56s1.92-0.57 2.99-0.57c1.02 0 2.06 0.29 3.13 0.88 1.07 0.59 1.97 1.39 2.7 2.4 0.73 1.01 1.14 2.13 1.23 3.35 0 0.06 0 0.15 0.01 0.27s0.01 0.21 0.01 0.26c0 1.03-0.19 1.99-0.58 2.89 -0.39 0.9-0.92 1.69-1.61 2.36s-1.48 1.21-2.36 1.58c-0.88 0.37-1.81 0.56-2.79 0.56 -1.18 0-2.33-0.29-3.45-0.88 -1.12-0.59-2.04-1.45-2.75-2.6C526.32 321.79 525.97 320.44 525.97 318.9zM527.8 318.99c0 1.11 0.25 2.09 0.74 2.93 0.5 0.84 1.16 1.49 2 1.96s1.75 0.73 2.74 0.77c0.83 0 1.65-0.22 2.47-0.66 0.82-0.44 1.51-1.1 2.05-1.96 0.54-0.86 0.81-1.87 0.81-3.04 0-0.68-0.14-1.33-0.42-1.98 -0.28-0.64-0.67-1.21-1.17-1.72 -0.5-0.5-1.07-0.9-1.72-1.19 -0.65-0.29-1.32-0.44-2.01-0.44 -0.94 0.02-1.82 0.26-2.66 0.72 -0.83 0.46-1.51 1.09-2.02 1.9C528.09 317.09 527.82 317.99 527.8 318.99zM543.07 326.11v-18.86h1.89v18.86H543.07zM554.13 319.23c0.01-1.11 0.23-2.13 0.65-3.06 0.42-0.93 0.99-1.71 1.7-2.36 0.71-0.65 1.51-1.14 2.4-1.48 0.89-0.34 1.79-0.52 2.71-0.52 2.55 0.06 4.38 1.08 5.48 3.06v-2.71h1.84v13.95h-1.84v-2.65c-0.52 0.94-1.28 1.66-2.27 2.18 -0.99 0.52-2.11 0.77-3.37 0.77 -0.95-0.02-1.87-0.21-2.74-0.55 -0.88-0.34-1.66-0.83-2.35-1.46 -0.69-0.63-1.23-1.39-1.63-2.27C554.33 321.25 554.13 320.28 554.13 319.23zM556.07 318.79c0 1.15 0.25 2.16 0.76 3.04 0.5 0.88 1.17 1.56 1.99 2.03 0.83 0.47 1.7 0.72 2.63 0.74 1.07 0 2.03-0.26 2.89-0.77 0.86-0.51 1.53-1.18 2.02-2.02 0.49-0.83 0.73-1.69 0.73-2.59 0-0.99-0.23-1.9-0.71-2.73 -0.47-0.83-1.12-1.5-1.95-2 -0.83-0.5-1.73-0.77-2.72-0.82 -1.07 0-2.04 0.27-2.91 0.8s-1.53 1.2-2.01 2.01S556.07 318.06 556.07 318.79zM572.12 326.11v-13.95h1.79v2.09c0.46-0.77 1.09-1.36 1.89-1.77 0.8-0.41 1.65-0.62 2.54-0.62 0.78 0 1.54 0.14 2.27 0.42 0.73 0.28 1.38 0.69 1.96 1.23 0.58 0.54 1.04 1.21 1.38 2.02 0.34 0.81 0.51 1.71 0.51 2.7v7.88h-1.83v-7.88c0-0.96-0.21-1.78-0.62-2.47 -0.41-0.68-0.95-1.19-1.62-1.53 -0.67-0.34-1.39-0.51-2.14-0.51 -0.74 0-1.44 0.16-2.08 0.49 -0.64 0.33-1.16 0.81-1.56 1.46 -0.4 0.65-0.59 1.43-0.59 2.33v8.11H572.12zM586.84 318.48c0.11-1.3 0.52-2.45 1.22-3.45 0.7-1 1.58-1.78 2.64-2.34 1.05-0.55 2.14-0.85 3.26-0.89 1.18 0 2.28 0.23 3.3 0.68 1.02 0.45 1.85 1.16 2.49 2.13v-7.37h1.89v18.86h-1.78v-2.65c-0.66 0.99-1.46 1.73-2.39 2.22 -0.93 0.49-2.06 0.73-3.4 0.73 -1.14-0.05-2.28-0.39-3.4-1.01 -1.12-0.62-2.04-1.49-2.76-2.59 -0.72-1.1-1.07-2.35-1.07-3.73C586.81 318.82 586.82 318.62 586.84 318.48zM588.77 318.34c-0.03 0.17-0.05 0.43-0.05 0.77 0 0.92 0.24 1.8 0.72 2.65 0.48 0.84 1.14 1.52 1.98 2.05 0.84 0.52 1.76 0.79 2.79 0.81 0.92 0 1.82-0.23 2.69-0.69 0.87-0.46 1.58-1.12 2.13-1.99 0.55-0.87 0.82-1.88 0.82-3.02 0-0.61-0.2-1.33-0.59-2.16 -0.39-0.83-1.01-1.55-1.86-2.15 -0.85-0.61-1.91-0.91-3.18-0.91 -0.69 0-1.42 0.15-2.18 0.46 -0.76 0.31-1.44 0.81-2.06 1.52C589.36 316.35 588.96 317.25 588.77 318.34zM611.72 326.11v-18.86h4.95c1.49 0 2.77 0.16 3.84 0.47 1.07 0.31 1.94 0.86 2.59 1.65 0.65 0.79 1.02 1.86 1.12 3.21 0.02 0.12 0.03 0.29 0.03 0.51 0 1.05-0.28 1.98-0.83 2.8s-1.33 1.46-2.32 1.92c-0.99 0.46-2.12 0.69-3.37 0.69h-4.11v7.62H611.72L611.72 326.11zM613.6 308.93v7.88h3.9c1.66 0 2.88-0.38 3.65-1.15 0.77-0.76 1.16-1.79 1.16-3.09 -0.07-1.34-0.58-2.28-1.53-2.83 -0.95-0.55-2.25-0.82-3.89-0.82H613.6zM626.13 326.11v-14h1.76v2.09c0.78-1.6 2.14-2.4 4.08-2.4v1.91c-0.44 0-0.9 0.09-1.37 0.28 -0.47 0.19-0.91 0.45-1.3 0.8 -0.4 0.35-0.71 0.75-0.95 1.21 -0.24 0.46-0.35 0.96-0.35 1.49v8.61h-1.86V326.11zM632.36 319.05c0.03-1.12 0.25-2.12 0.66-3.01 0.41-0.89 0.96-1.65 1.65-2.28 0.69-0.63 1.46-1.1 2.31-1.44 0.85-0.33 1.71-0.5 2.6-0.51 1.19 0 2.34 0.29 3.46 0.87 1.12 0.58 2.03 1.45 2.74 2.61 0.71 1.16 1.07 2.54 1.07 4.15v0.35h-12.6c0.08 1.03 0.4 1.91 0.95 2.64 0.55 0.73 1.22 1.27 2.01 1.64 0.79 0.36 1.56 0.54 2.32 0.54 0.68 0 1.36-0.13 2.05-0.4 0.69-0.27 1.3-0.64 1.83-1.11 0.53-0.47 0.9-0.99 1.12-1.56h1.94c-0.39 1.07-0.96 1.98-1.71 2.72 -0.75 0.74-1.59 1.29-2.52 1.65 -0.93 0.35-1.86 0.53-2.81 0.53 -1.24-0.05-2.4-0.38-3.48-0.99 -1.08-0.61-1.95-1.47-2.6-2.57C632.69 321.75 632.36 320.48 632.36 319.05zM645.01 318.11c-0.16-0.81-0.49-1.55-0.99-2.23 -0.5-0.69-1.14-1.23-1.9-1.64 -0.77-0.41-1.6-0.61-2.49-0.61 -1.19 0-2.19 0.28-2.98 0.85 -0.79 0.56-1.37 1.2-1.75 1.9 -0.37 0.7-0.59 1.28-0.65 1.74H645.01L645.01 318.11zM652.98 326.11l-5.86-13.95h2.04l4.82 11.55 4.84-11.55h2.04l-5.94 13.95H652.98zM661.17 319.05c0.03-1.12 0.25-2.12 0.66-3.01s0.96-1.65 1.65-2.28c0.69-0.63 1.46-1.1 2.31-1.44 0.85-0.33 1.71-0.5 2.6-0.51 1.19 0 2.34 0.29 3.46 0.87 1.12 0.58 2.03 1.45 2.74 2.61 0.71 1.16 1.07 2.54 1.07 4.15v0.35h-12.6c0.08 1.03 0.4 1.91 0.95 2.64 0.55 0.73 1.22 1.27 2.01 1.64 0.79 0.36 1.56 0.54 2.32 0.54 0.68 0 1.36-0.13 2.05-0.4 0.69-0.27 1.3-0.64 1.83-1.11 0.53-0.47 0.9-0.99 1.12-1.56h1.94c-0.39 1.07-0.96 1.98-1.71 2.72 -0.75 0.74-1.59 1.29-2.52 1.65 -0.93 0.35-1.86 0.53-2.81 0.53 -1.24-0.05-2.4-0.38-3.48-0.99 -1.08-0.61-1.95-1.47-2.6-2.57C661.5 321.75 661.17 320.48 661.17 319.05zM673.81 318.11c-0.16-0.81-0.49-1.55-0.99-2.23 -0.5-0.69-1.14-1.23-1.9-1.64s-1.59-0.61-2.49-0.61c-1.19 0-2.19 0.28-2.98 0.85 -0.79 0.56-1.37 1.2-1.75 1.9 -0.37 0.7-0.59 1.28-0.65 1.74H673.81L673.81 318.11zM678.08 326.11v-13.95h1.79v2.09c0.46-0.77 1.09-1.36 1.89-1.77 0.8-0.41 1.65-0.62 2.55-0.62 0.78 0 1.54 0.14 2.27 0.42 0.73 0.28 1.38 0.69 1.96 1.23 0.57 0.54 1.04 1.21 1.38 2.02 0.34 0.81 0.51 1.71 0.51 2.7v7.88h-1.84v-7.88c0-0.96-0.21-1.78-0.62-2.47 -0.41-0.68-0.95-1.19-1.62-1.53s-1.38-0.51-2.14-0.51c-0.74 0-1.44 0.16-2.08 0.49 -0.64 0.33-1.16 0.81-1.56 1.46 -0.4 0.65-0.59 1.43-0.59 2.33v8.11H678.08zM694.49 326.11v-12.24h-2.93v-1.7h2.93v-4.92h1.89v4.92h3.24v1.7h-3.24v12.24H694.49zM701.29 310.48v-3.24h1.89v3.24H701.29zM701.29 326.11v-13.95h1.89v13.95H701.29zM705.67 318.9c0.01-0.92 0.21-1.8 0.58-2.65 0.37-0.85 0.9-1.6 1.56-2.26 0.67-0.66 1.47-1.18 2.39-1.56s1.92-0.57 2.99-0.57c1.02 0 2.06 0.29 3.14 0.88 1.07 0.59 1.97 1.39 2.7 2.4 0.73 1.01 1.14 2.13 1.23 3.35 0 0.06 0 0.15 0.01 0.27 0.01 0.12 0.01 0.21 0.01 0.26 0 1.03-0.19 1.99-0.58 2.89 -0.39 0.9-0.92 1.69-1.61 2.36 -0.69 0.68-1.48 1.21-2.36 1.58s-1.81 0.56-2.79 0.56c-1.18 0-2.33-0.29-3.45-0.88 -1.12-0.59-2.04-1.45-2.75-2.6C706.02 321.79 705.67 320.44 705.67 318.9zM707.5 318.99c0 1.11 0.25 2.09 0.74 2.93 0.5 0.84 1.16 1.49 2 1.96 0.84 0.47 1.75 0.73 2.74 0.77 0.82 0 1.65-0.22 2.47-0.66 0.82-0.44 1.51-1.1 2.05-1.96 0.54-0.86 0.81-1.87 0.81-3.04 0-0.68-0.14-1.33-0.42-1.98 -0.28-0.64-0.67-1.21-1.17-1.72 -0.5-0.5-1.07-0.9-1.72-1.19 -0.65-0.29-1.32-0.44-2.01-0.44 -0.94 0.02-1.82 0.26-2.66 0.72 -0.83 0.46-1.51 1.09-2.02 1.9C707.78 317.09 707.52 317.99 707.5 318.99zM722.73 326.11v-13.95h1.79v2.09c0.46-0.77 1.09-1.36 1.89-1.77 0.8-0.41 1.65-0.62 2.55-0.62 0.78 0 1.54 0.14 2.27 0.42s1.38 0.69 1.96 1.23c0.58 0.54 1.04 1.21 1.38 2.02 0.34 0.81 0.51 1.71 0.51 2.7v7.88h-1.83v-7.88c0-0.96-0.21-1.78-0.62-2.47 -0.41-0.68-0.95-1.19-1.62-1.53 -0.67-0.34-1.39-0.51-2.15-0.51 -0.74 0-1.44 0.16-2.08 0.49 -0.64 0.33-1.16 0.81-1.56 1.46 -0.4 0.65-0.59 1.43-0.59 2.33v8.11H722.73z"/><path d="M222.91 339.67c0.1-0.9 0.41-1.69 0.92-2.37 0.51-0.68 1.15-1.21 1.91-1.58 0.76-0.37 1.56-0.55 2.4-0.55 0.46 0 0.91 0.06 1.34 0.17 0.44 0.11 0.86 0.28 1.25 0.51s0.77 0.51 1.11 0.85c0.34 0.35 0.65 0.75 0.9 1.22h-1.12c-0.29-0.38-0.62-0.7-1-0.97 -0.38-0.26-0.77-0.45-1.19-0.58s-0.83-0.19-1.25-0.19c-0.56 0-1.09 0.1-1.61 0.3 -0.52 0.2-0.98 0.49-1.38 0.86 -0.4 0.37-0.72 0.83-0.96 1.35 -0.23 0.52-0.35 1.1-0.35 1.73 0.01 0.81 0.21 1.53 0.62 2.17 0.4 0.64 0.93 1.14 1.58 1.5 0.65 0.36 1.35 0.54 2.08 0.56 0.43-0.01 0.86-0.08 1.28-0.22 0.42-0.13 0.83-0.34 1.21-0.61 0.38-0.27 0.72-0.61 1.02-1.03h1.12c-0.37 0.63-0.79 1.15-1.29 1.57 -0.49 0.42-1.02 0.73-1.58 0.93 -0.56 0.2-1.15 0.3-1.76 0.3 -0.67 0-1.32-0.12-1.95-0.37 -0.63-0.25-1.2-0.6-1.71-1.07 -0.5-0.46-0.9-1.02-1.19-1.67 -0.29-0.65-0.44-1.36-0.44-2.13C222.87 340.12 222.88 339.89 222.91 339.67zM234.34 345.43V335.33h2.75c0.95 0 1.78 0.13 2.51 0.4 0.73 0.27 1.33 0.64 1.82 1.12 0.49 0.48 0.85 1.02 1.09 1.64 0.24 0.62 0.36 1.28 0.36 1.99 -0.01 0.75-0.15 1.44-0.44 2.05s-0.68 1.14-1.19 1.58c-0.5 0.44-1.06 0.77-1.69 0.99 -0.62 0.22-1.27 0.34-1.93 0.34H234.34L234.34 345.43zM235.35 336.23v8.27h1.56c1.4 0 2.56-0.33 3.46-0.99 0.91-0.66 1.4-1.67 1.49-3.04 0-0.56-0.1-1.1-0.29-1.61 -0.19-0.51-0.49-0.96-0.88-1.36 -0.39-0.4-0.89-0.71-1.5-0.94 -0.6-0.23-1.31-0.34-2.1-0.34H235.35L235.35 336.23zM244.1 339.67c0.1-0.9 0.41-1.69 0.92-2.37 0.51-0.68 1.15-1.21 1.91-1.58 0.76-0.37 1.56-0.55 2.4-0.55 0.46 0 0.91 0.06 1.34 0.17 0.44 0.11 0.86 0.28 1.25 0.51s0.77 0.51 1.11 0.85c0.34 0.35 0.65 0.75 0.9 1.22h-1.12c-0.29-0.38-0.62-0.7-1-0.97 -0.38-0.26-0.77-0.45-1.19-0.58s-0.83-0.19-1.25-0.19c-0.56 0-1.09 0.1-1.61 0.3 -0.52 0.2-0.98 0.49-1.38 0.86 -0.4 0.37-0.72 0.83-0.96 1.35 -0.23 0.52-0.35 1.1-0.35 1.73 0.01 0.81 0.21 1.53 0.62 2.17 0.4 0.64 0.93 1.14 1.58 1.5 0.65 0.36 1.35 0.54 2.08 0.56 0.43-0.01 0.86-0.08 1.28-0.22 0.42-0.13 0.83-0.34 1.21-0.61 0.38-0.27 0.72-0.61 1.02-1.03h1.12c-0.37 0.63-0.79 1.15-1.29 1.57 -0.49 0.42-1.02 0.73-1.58 0.93 -0.56 0.2-1.15 0.3-1.76 0.3 -0.67 0-1.32-0.12-1.95-0.37 -0.63-0.25-1.2-0.6-1.71-1.07 -0.5-0.46-0.9-1.02-1.19-1.67 -0.29-0.65-0.44-1.36-0.44-2.13C244.06 340.12 244.07 339.89 244.1 339.67zM258.57 338.61c0.01-0.76 0.17-1.39 0.47-1.9 0.3-0.51 0.7-0.89 1.2-1.14 0.49-0.25 1.03-0.38 1.61-0.39 0.4 0 0.79 0.08 1.16 0.23 0.37 0.16 0.71 0.37 1 0.65 0.29 0.28 0.52 0.6 0.69 0.98 0.17 0.38 0.25 0.78 0.25 1.21 0 1.01-0.47 1.96-1.42 2.85l-3.61 3.41h5.03v0.93h-6.43v-0.9l4.5-4.38c0.63-0.62 0.94-1.26 0.94-1.91 0-0.37-0.09-0.72-0.28-1.03 -0.19-0.31-0.43-0.56-0.74-0.75 -0.31-0.19-0.64-0.29-0.98-0.31 -0.66 0-1.22 0.2-1.68 0.6s-0.69 1.02-0.69 1.86H258.57L258.57 338.61zM270.42 335.33h1.26v7.33h0.9v0.9h-0.9v1.87h-1.01v-1.87h-5.09v-0.9L270.42 335.33zM270.66 336.71l-3.94 5.95h3.95V336.71zM273.05 347.16l3.95-11.83h0.93l-4 11.83H273.05zM279.81 345.43l4.17-9.2h-4.78v-0.9h5.84v0.9l-4.15 9.2H279.81zM286.27 338.47h1.01v1.71h-1.01V338.47zM286.27 343.7h1.01v1.73h-1.01V343.7zM293.56 342.6c0.02 0.44 0.13 0.81 0.34 1.11 0.2 0.3 0.46 0.53 0.78 0.68 0.32 0.15 0.66 0.23 1.01 0.23 0.33 0 0.65-0.09 0.95-0.26 0.31-0.18 0.55-0.41 0.74-0.71 0.19-0.3 0.28-0.62 0.28-0.96 0-0.42-0.11-0.79-0.32-1.12 -0.2-0.31-0.57-0.57-1.12-0.76 -0.55-0.19-1.09-0.37-1.61-0.55 -0.53-0.18-0.96-0.44-1.3-0.8 -0.34-0.35-0.51-0.88-0.51-1.56 0-0.03 0-0.07 0.01-0.12 0.01-0.05 0.01-0.1 0.01-0.15 0.03-0.48 0.17-0.91 0.44-1.28 0.27-0.37 0.61-0.66 1.03-0.87s0.86-0.31 1.33-0.31c0.55 0 1.03 0.13 1.46 0.4 0.43 0.27 0.76 0.6 0.99 1s0.35 0.8 0.35 1.18v0.14h-1.01c-0.07-0.56-0.27-0.98-0.59-1.25 -0.32-0.27-0.71-0.43-1.17-0.48 -0.31 0-0.61 0.07-0.88 0.21 -0.27 0.14-0.49 0.32-0.66 0.56 -0.17 0.24-0.26 0.49-0.28 0.76 0 0.63 0.17 1.07 0.5 1.31 0.33 0.24 0.86 0.47 1.58 0.68 0.72 0.21 1.3 0.46 1.75 0.77 0.45 0.31 0.76 0.82 0.96 1.55 0.04 0.27 0.06 0.48 0.06 0.64 0 0.34-0.06 0.69-0.19 1.04 -0.13 0.35-0.32 0.67-0.57 0.96 -0.25 0.29-0.57 0.52-0.95 0.7 -0.38 0.18-0.82 0.27-1.3 0.27 -0.47 0-0.9-0.08-1.3-0.23 -0.39-0.15-0.73-0.37-1.01-0.65 -0.28-0.27-0.5-0.59-0.64-0.96 -0.15-0.36-0.22-0.74-0.22-1.15h1.11V342.6zM299.65 341.74c0.01-0.59 0.12-1.14 0.35-1.64 0.23-0.5 0.53-0.92 0.91-1.26 0.38-0.35 0.81-0.61 1.29-0.8 0.48-0.18 0.96-0.28 1.45-0.28 1.37 0.03 2.34 0.58 2.94 1.64v-1.45h0.98v7.47h-0.98v-1.42c-0.28 0.5-0.68 0.89-1.22 1.17 -0.53 0.27-1.13 0.41-1.8 0.41 -0.51-0.01-1-0.11-1.47-0.29 -0.47-0.18-0.89-0.44-1.26-0.78s-0.66-0.74-0.87-1.22C299.76 342.83 299.65 342.31 299.65 341.74zM300.69 341.51c0 0.61 0.14 1.16 0.41 1.63 0.27 0.47 0.63 0.83 1.07 1.09 0.44 0.25 0.91 0.39 1.41 0.4 0.57 0 1.09-0.14 1.55-0.41 0.46-0.27 0.82-0.63 1.08-1.08 0.26-0.45 0.39-0.91 0.39-1.39 0-0.53-0.13-1.02-0.38-1.46 -0.25-0.45-0.6-0.8-1.04-1.07 -0.44-0.27-0.93-0.41-1.46-0.44 -0.58 0-1.09 0.14-1.56 0.43 -0.46 0.29-0.82 0.65-1.08 1.08C300.81 340.7 300.69 341.12 300.69 341.51zM311.7 345.43l-3.14-7.47h1.09l2.58 6.18 2.59-6.18h1.09l-3.18 7.47H311.7zM316.91 337.06v-1.73h1.01v1.73H316.91zM316.91 345.43v-7.47h1.01v7.47H316.91zM319.73 345.43v-7.47h0.96v1.12c0.25-0.41 0.58-0.73 1.01-0.95 0.43-0.22 0.88-0.33 1.36-0.33 0.42 0 0.83 0.08 1.22 0.23 0.39 0.15 0.74 0.37 1.05 0.66 0.31 0.29 0.56 0.65 0.74 1.08 0.18 0.43 0.27 0.91 0.27 1.45v4.22h-0.98v-4.22c0-0.52-0.11-0.95-0.33-1.32 -0.22-0.36-0.51-0.64-0.87-0.82 -0.36-0.18-0.74-0.27-1.15-0.27 -0.4 0-0.77 0.09-1.11 0.26 -0.34 0.17-0.62 0.44-0.83 0.78 -0.21 0.35-0.32 0.76-0.32 1.25v4.34h-1.01V345.43zM327.76 341.68c0-0.78 0.18-1.47 0.55-2.06 0.37-0.59 0.83-1.04 1.4-1.36 0.57-0.32 1.15-0.48 1.75-0.49 0.46 0 0.89 0.07 1.3 0.21 0.41 0.14 0.77 0.33 1.09 0.58 0.31 0.25 0.55 0.55 0.71 0.88v-1.5h0.96v6.85c0 0.57-0.1 1.08-0.3 1.52 -0.2 0.44-0.47 0.81-0.81 1.1 -0.34 0.29-0.74 0.51-1.18 0.66 -0.44 0.15-0.9 0.22-1.38 0.22 -0.43 0-0.84-0.06-1.25-0.17 -0.41-0.11-0.78-0.29-1.13-0.51 -0.34-0.23-0.64-0.51-0.89-0.85 -0.25-0.34-0.43-0.72-0.54-1.15h0.98c0.24 0.57 0.62 1.01 1.13 1.31 0.51 0.3 1.05 0.45 1.65 0.45 0.49 0 0.94-0.1 1.37-0.31 0.42-0.2 0.76-0.5 1.02-0.9 0.26-0.39 0.39-0.86 0.39-1.39v-0.81c-0.59 1.1-1.56 1.65-2.91 1.65 -0.47 0-0.93-0.08-1.39-0.26 -0.46-0.17-0.88-0.42-1.25-0.76 -0.37-0.34-0.67-0.75-0.9-1.25C327.88 342.84 327.76 342.29 327.76 341.68zM328.77 341.48c0 0.63 0.13 1.18 0.39 1.65 0.26 0.48 0.6 0.84 1.03 1.09 0.43 0.26 0.91 0.39 1.43 0.4 0.41 0 0.85-0.1 1.3-0.32 0.46-0.21 0.84-0.55 1.16-1.01 0.32-0.46 0.48-1.03 0.48-1.73 0-0.35-0.08-0.69-0.23-1.03 -0.16-0.34-0.37-0.64-0.65-0.91 -0.27-0.26-0.6-0.48-0.97-0.63 -0.37-0.15-0.76-0.23-1.17-0.23 -0.71 0.02-1.27 0.21-1.69 0.56 -0.41 0.35-0.69 0.74-0.85 1.16C328.84 340.91 328.77 341.24 328.77 341.48zM341.92 344.53l4.19-0.03v0.93h-5.2V335.33h1.01V344.53L341.92 344.53zM347.12 337.06v-1.73h1.01v1.73H347.12zM347.12 345.43v-7.47h1.01v7.47H347.12zM352.25 345.43l-3.14-7.47h1.09l2.58 6.18 2.59-6.18h1.09l-3.18 7.47H352.25zM356.77 341.65c0.02-0.6 0.13-1.14 0.35-1.61 0.22-0.48 0.51-0.89 0.89-1.22s0.78-0.59 1.23-0.77c0.45-0.18 0.92-0.27 1.39-0.27 0.64 0 1.25 0.15 1.85 0.47 0.6 0.31 1.09 0.77 1.47 1.4 0.38 0.62 0.57 1.36 0.57 2.22v0.19h-6.74c0.04 0.56 0.21 1.02 0.51 1.42 0.3 0.39 0.65 0.68 1.08 0.87s0.83 0.29 1.24 0.29c0.36 0 0.73-0.07 1.1-0.22s0.7-0.34 0.98-0.59c0.28-0.25 0.48-0.53 0.6-0.84h1.04c-0.21 0.57-0.51 1.06-0.91 1.46 -0.4 0.4-0.85 0.69-1.35 0.88 -0.5 0.19-1 0.28-1.5 0.28 -0.66-0.02-1.29-0.2-1.86-0.53 -0.58-0.33-1.04-0.78-1.39-1.38C356.94 343.09 356.77 342.41 356.77 341.65zM363.54 341.14c-0.08-0.43-0.26-0.83-0.53-1.19 -0.27-0.37-0.61-0.66-1.02-0.88 -0.41-0.22-0.85-0.33-1.33-0.33 -0.64 0-1.17 0.15-1.6 0.46 -0.42 0.3-0.73 0.64-0.94 1.02 -0.2 0.38-0.31 0.69-0.35 0.93h5.76V341.14zM365.63 340.15c-0.01-0.07-0.01-0.17-0.01-0.3 0-0.43 0.11-0.8 0.32-1.11 0.22-0.31 0.49-0.55 0.81-0.7 0.33-0.16 0.64-0.23 0.95-0.23 0.25 0 0.5 0.04 0.75 0.13 0.25 0.08 0.48 0.21 0.68 0.38 0.21 0.17 0.37 0.38 0.5 0.63 0.13 0.25 0.2 0.55 0.21 0.87h-1.02c-0.02-0.36-0.13-0.62-0.34-0.79 -0.21-0.17-0.47-0.25-0.77-0.25 -0.27 0-0.52 0.09-0.75 0.26 -0.23 0.18-0.35 0.43-0.37 0.77 0 0.01 0.02 0.06 0.04 0.17 0.02 0.1 0.04 0.17 0.05 0.2 0.07 0.25 0.3 0.45 0.7 0.62 0.4 0.17 0.8 0.32 1.21 0.48 0.41 0.15 0.75 0.38 1.03 0.67 0.28 0.3 0.42 0.72 0.42 1.26 0 0.09-0.01 0.23-0.03 0.41 -0.06 0.46-0.21 0.84-0.45 1.14 -0.25 0.3-0.54 0.51-0.87 0.65 -0.34 0.13-0.67 0.2-0.99 0.2 -0.45 0-0.85-0.1-1.21-0.31 -0.35-0.21-0.63-0.49-0.83-0.85 -0.2-0.36-0.29-0.75-0.29-1.19l1.01-0.03c0.01 0.43 0.16 0.78 0.44 1.04 0.28 0.27 0.59 0.41 0.95 0.42 0.35-0.03 0.66-0.17 0.91-0.41 0.25-0.24 0.38-0.54 0.38-0.88 0-0.31-0.1-0.58-0.3-0.83s-0.51-0.43-0.93-0.53c-0.57-0.15-1.06-0.37-1.46-0.64C365.93 341.1 365.69 340.69 365.63 340.15zM372.48 343.7h1.01l-1.23 2.63h-0.98L372.48 343.7zM378.35 345.43V335.33H381c0.8 0 1.48 0.08 2.05 0.25s1.04 0.46 1.39 0.88c0.35 0.42 0.55 0.99 0.6 1.72 0.01 0.06 0.01 0.16 0.01 0.27 0 0.56-0.15 1.06-0.44 1.5 -0.3 0.44-0.71 0.78-1.24 1.03 -0.53 0.24-1.13 0.37-1.81 0.37h-2.2v4.08L378.35 345.43 378.35 345.43zM379.36 336.23v4.22h2.09c0.89 0 1.54-0.2 1.96-0.61 0.42-0.41 0.62-0.96 0.62-1.65 -0.04-0.72-0.31-1.22-0.82-1.51s-1.2-0.44-2.08-0.44H379.36L379.36 336.23zM386.19 345.43v-7.49h0.94v1.12c0.42-0.85 1.14-1.28 2.18-1.28v1.02c-0.23 0-0.48 0.05-0.73 0.15 -0.25 0.1-0.49 0.24-0.7 0.43 -0.21 0.18-0.38 0.4-0.51 0.65 -0.13 0.25-0.19 0.51-0.19 0.8v4.61L386.19 345.43 386.19 345.43zM389.65 341.56c0.01-0.49 0.11-0.96 0.31-1.42s0.48-0.86 0.84-1.21c0.36-0.35 0.78-0.63 1.28-0.83s1.02-0.31 1.6-0.31c0.55 0 1.11 0.16 1.68 0.47 0.57 0.31 1.06 0.74 1.45 1.28 0.39 0.54 0.61 1.14 0.66 1.79 0 0.03 0 0.08 0.01 0.15 0 0.06 0.01 0.11 0.01 0.14 0 0.55-0.1 1.07-0.31 1.55 -0.21 0.48-0.49 0.9-0.86 1.27 -0.37 0.36-0.79 0.64-1.26 0.84 -0.48 0.2-0.97 0.3-1.49 0.3 -0.63 0-1.25-0.16-1.85-0.47 -0.6-0.31-1.09-0.78-1.47-1.39S389.65 342.4 389.65 341.56zM390.63 341.62c0 0.6 0.13 1.12 0.4 1.57 0.27 0.45 0.62 0.8 1.07 1.05 0.45 0.25 0.94 0.39 1.47 0.42 0.44 0 0.89-0.12 1.33-0.36 0.44-0.24 0.81-0.59 1.1-1.05 0.29-0.46 0.43-1 0.43-1.63 0-0.36-0.08-0.71-0.23-1.06s-0.36-0.65-0.63-0.92c-0.27-0.27-0.57-0.48-0.92-0.64 -0.35-0.16-0.71-0.23-1.07-0.23 -0.5 0.01-0.98 0.14-1.42 0.39 -0.45 0.25-0.81 0.59-1.08 1.02C390.78 340.6 390.64 341.08 390.63 341.62zM399.37 345.43v-6.55h-1.57v-0.91h1.57v-2.63h1.01v2.63h1.73v0.91h-1.73v6.55H399.37zM402.49 341.65c0.02-0.6 0.13-1.14 0.35-1.61 0.22-0.48 0.51-0.89 0.89-1.22 0.37-0.34 0.78-0.59 1.23-0.77 0.45-0.18 0.92-0.27 1.39-0.27 0.64 0 1.25 0.15 1.85 0.47 0.6 0.31 1.09 0.77 1.47 1.4 0.38 0.62 0.57 1.36 0.57 2.22v0.19h-6.74c0.05 0.56 0.21 1.02 0.51 1.42 0.3 0.39 0.65 0.68 1.07 0.87 0.42 0.19 0.83 0.29 1.24 0.29 0.36 0 0.73-0.07 1.1-0.22 0.37-0.15 0.69-0.34 0.98-0.59 0.28-0.25 0.48-0.53 0.6-0.84h1.04c-0.21 0.57-0.52 1.06-0.92 1.46s-0.85 0.69-1.35 0.88c-0.5 0.19-1 0.28-1.5 0.28 -0.66-0.02-1.28-0.2-1.86-0.53 -0.58-0.33-1.04-0.78-1.39-1.38C402.66 343.09 402.49 342.41 402.49 341.65zM409.26 341.14c-0.08-0.43-0.26-0.83-0.53-1.19 -0.27-0.37-0.61-0.66-1.02-0.88 -0.41-0.22-0.85-0.33-1.33-0.33 -0.64 0-1.17 0.15-1.6 0.46 -0.42 0.3-0.74 0.64-0.94 1.02 -0.2 0.38-0.31 0.69-0.35 0.93h5.76V341.14zM411.32 341.68c0.01-0.59 0.12-1.12 0.34-1.6 0.22-0.48 0.52-0.89 0.88-1.22 0.37-0.34 0.78-0.6 1.23-0.77 0.45-0.18 0.91-0.28 1.38-0.3 0.85 0 1.63 0.2 2.34 0.6s1.22 1.01 1.55 1.83h-1.15c-0.27-0.46-0.64-0.82-1.11-1.06 -0.47-0.25-1.01-0.37-1.63-0.37 -0.56 0.04-1.06 0.19-1.48 0.47 -0.42 0.27-0.75 0.63-0.98 1.06 -0.23 0.43-0.35 0.9-0.36 1.38 0 0.53 0.13 1.02 0.38 1.46 0.25 0.44 0.61 0.8 1.06 1.06 0.45 0.27 0.95 0.4 1.5 0.42 0.57 0 1.1-0.13 1.57-0.39 0.47-0.26 0.83-0.59 1.09-0.99h1.12c-0.81 1.56-2.06 2.35-3.72 2.35 -0.5 0-0.99-0.09-1.47-0.28 -0.48-0.19-0.91-0.46-1.29-0.81 -0.38-0.35-0.69-0.76-0.91-1.24 -0.22-0.47-0.34-0.98-0.35-1.53 0.01-0.01 0.02-0.02 0.02-0.03C411.32 341.69 411.32 341.68 411.32 341.68zM421.09 345.43v-6.55h-1.57v-0.91h1.57v-2.63h1.01v2.63h1.73v0.91H422.1v6.55H421.09zM424.85 337.06v-1.73h1.01v1.73H424.85zM424.85 345.43v-7.47h1.01v7.47H424.85zM427.68 345.43v-7.47h0.96v1.12c0.25-0.41 0.58-0.73 1.01-0.95 0.43-0.22 0.88-0.33 1.36-0.33 0.42 0 0.83 0.08 1.22 0.23 0.39 0.15 0.74 0.37 1.05 0.66 0.31 0.29 0.55 0.65 0.74 1.08 0.19 0.43 0.28 0.91 0.28 1.45v4.22h-0.98v-4.22c0-0.52-0.11-0.95-0.33-1.32 -0.22-0.36-0.51-0.64-0.87-0.82 -0.36-0.18-0.74-0.27-1.15-0.27 -0.4 0-0.77 0.09-1.11 0.26 -0.34 0.17-0.62 0.44-0.84 0.78 -0.21 0.35-0.32 0.76-0.32 1.25v4.34h-1.01V345.43zM435.7 341.68c0-0.78 0.18-1.47 0.55-2.06s0.83-1.04 1.4-1.36c0.57-0.32 1.15-0.48 1.75-0.49 0.46 0 0.89 0.07 1.3 0.21 0.41 0.14 0.77 0.33 1.09 0.58 0.31 0.25 0.55 0.55 0.72 0.88v-1.5h0.96v6.85c0 0.57-0.1 1.08-0.3 1.52 -0.2 0.44-0.47 0.81-0.81 1.1 -0.34 0.29-0.74 0.51-1.18 0.66 -0.44 0.15-0.9 0.22-1.38 0.22 -0.43 0-0.85-0.06-1.25-0.17 -0.41-0.11-0.78-0.29-1.13-0.51 -0.35-0.23-0.64-0.51-0.89-0.85 -0.25-0.34-0.43-0.72-0.53-1.15h0.98c0.25 0.57 0.62 1.01 1.13 1.31 0.51 0.3 1.05 0.45 1.64 0.45 0.49 0 0.94-0.1 1.37-0.31 0.42-0.2 0.77-0.5 1.02-0.9 0.26-0.39 0.39-0.86 0.39-1.39v-0.81c-0.59 1.1-1.56 1.65-2.91 1.65 -0.46 0-0.93-0.08-1.39-0.26 -0.46-0.17-0.88-0.42-1.25-0.76 -0.38-0.34-0.68-0.75-0.9-1.25C435.82 342.84 435.71 342.29 435.7 341.68zM436.71 341.48c0 0.63 0.13 1.18 0.39 1.65 0.26 0.48 0.6 0.84 1.03 1.09 0.44 0.26 0.91 0.39 1.43 0.4 0.41 0 0.85-0.1 1.3-0.32 0.46-0.21 0.84-0.55 1.16-1.01 0.31-0.46 0.48-1.03 0.48-1.73 0-0.35-0.08-0.69-0.23-1.03 -0.15-0.34-0.37-0.64-0.65-0.91 -0.28-0.26-0.6-0.48-0.97-0.63 -0.37-0.15-0.76-0.23-1.17-0.23 -0.71 0.02-1.28 0.21-1.69 0.56 -0.41 0.35-0.69 0.74-0.85 1.16C436.79 340.91 436.71 341.24 436.71 341.48zM448.86 345.43V335.33h2.65c0.8 0 1.48 0.08 2.05 0.25 0.57 0.17 1.04 0.46 1.39 0.88 0.35 0.42 0.55 0.99 0.6 1.72 0.01 0.06 0.01 0.16 0.01 0.27 0 0.56-0.15 1.06-0.44 1.5 -0.3 0.44-0.71 0.78-1.24 1.03 -0.53 0.24-1.13 0.37-1.81 0.37h-2.2v4.08L448.86 345.43 448.86 345.43zM449.87 336.23v4.22h2.09c0.89 0 1.54-0.2 1.96-0.61 0.42-0.41 0.62-0.96 0.62-1.65 -0.04-0.72-0.31-1.22-0.82-1.51 -0.51-0.29-1.2-0.44-2.08-0.44H449.87L449.87 336.23zM456.23 341.65c0.02-0.6 0.14-1.14 0.35-1.61 0.22-0.48 0.51-0.89 0.89-1.22 0.37-0.34 0.78-0.59 1.23-0.77 0.45-0.18 0.92-0.27 1.39-0.27 0.64 0 1.25 0.15 1.85 0.47 0.6 0.31 1.09 0.77 1.47 1.4 0.38 0.62 0.57 1.36 0.57 2.22v0.19h-6.74c0.05 0.56 0.21 1.02 0.51 1.42 0.3 0.39 0.65 0.68 1.07 0.87 0.42 0.19 0.83 0.29 1.24 0.29 0.36 0 0.73-0.07 1.1-0.22 0.37-0.15 0.69-0.34 0.98-0.59 0.28-0.25 0.48-0.53 0.6-0.84h1.04c-0.21 0.57-0.51 1.06-0.91 1.46 -0.4 0.4-0.85 0.69-1.35 0.88 -0.5 0.19-1 0.28-1.5 0.28 -0.67-0.02-1.29-0.2-1.86-0.53 -0.58-0.33-1.04-0.78-1.39-1.38C456.4 343.09 456.23 342.41 456.23 341.65zM463 341.14c-0.08-0.43-0.26-0.83-0.53-1.19 -0.27-0.37-0.61-0.66-1.02-0.88 -0.41-0.22-0.85-0.33-1.33-0.33 -0.64 0-1.17 0.15-1.6 0.46 -0.42 0.3-0.73 0.64-0.94 1.02 -0.2 0.38-0.31 0.69-0.35 0.93h5.76V341.14zM465.05 341.56c0.01-0.49 0.11-0.96 0.31-1.42 0.2-0.45 0.48-0.86 0.84-1.21 0.36-0.35 0.78-0.63 1.27-0.83 0.49-0.2 1.03-0.31 1.6-0.31 0.55 0 1.11 0.16 1.68 0.47s1.05 0.74 1.45 1.28c0.39 0.54 0.61 1.14 0.66 1.79 0 0.03 0 0.08 0.01 0.15 0 0.06 0.01 0.11 0.01 0.14 0 0.55-0.1 1.07-0.31 1.55 -0.21 0.48-0.49 0.9-0.86 1.27 -0.37 0.36-0.79 0.64-1.26 0.84 -0.47 0.2-0.97 0.3-1.49 0.3 -0.63 0-1.25-0.16-1.85-0.47 -0.6-0.31-1.09-0.78-1.47-1.39C465.24 343.12 465.05 342.4 465.05 341.56zM466.04 341.62c0 0.6 0.13 1.12 0.4 1.57 0.27 0.45 0.62 0.8 1.07 1.05 0.45 0.25 0.94 0.39 1.47 0.42 0.44 0 0.89-0.12 1.32-0.36 0.44-0.24 0.81-0.59 1.1-1.05s0.44-1 0.44-1.63c0-0.36-0.08-0.71-0.23-1.06 -0.15-0.34-0.36-0.65-0.62-0.92 -0.27-0.27-0.57-0.48-0.92-0.64 -0.35-0.16-0.71-0.23-1.08-0.23 -0.5 0.01-0.98 0.14-1.42 0.39 -0.44 0.25-0.81 0.59-1.08 1.02C466.19 340.6 466.04 341.08 466.04 341.62zM474.32 348.03v-10.1h0.97v1.34c0.23-0.33 0.49-0.6 0.79-0.82 0.3-0.22 0.62-0.39 0.97-0.5 0.35-0.11 0.72-0.17 1.1-0.18 0.51 0 1 0.09 1.49 0.27 0.48 0.18 0.92 0.44 1.31 0.77 0.39 0.33 0.69 0.73 0.93 1.19 0.23 0.47 0.35 0.97 0.37 1.51 0 0.6-0.1 1.14-0.3 1.64 -0.2 0.49-0.49 0.92-0.86 1.29 -0.37 0.36-0.79 0.65-1.27 0.84 -0.48 0.2-0.99 0.3-1.54 0.31 -0.65 0-1.24-0.14-1.76-0.42 -0.52-0.28-0.9-0.67-1.14-1.17v4.04L474.32 348.03 474.32 348.03zM475.27 341.74c0.01 0.44 0.12 0.88 0.34 1.31 0.21 0.44 0.54 0.8 0.99 1.1 0.45 0.3 1.01 0.45 1.67 0.47 0.51 0 0.98-0.12 1.43-0.38 0.45-0.25 0.81-0.6 1.07-1.05 0.27-0.45 0.4-0.94 0.4-1.49 0-0.52-0.13-1-0.39-1.45 -0.26-0.45-0.62-0.81-1.08-1.08 -0.46-0.27-0.97-0.4-1.53-0.4 -0.58 0.02-1.09 0.17-1.53 0.45 -0.44 0.28-0.78 0.65-1.02 1.1C475.38 340.77 475.27 341.24 475.27 341.74zM483.65 345.43V335.33h1.01v10.1H483.65L483.65 345.43zM486.14 341.65c0.02-0.6 0.14-1.14 0.35-1.61 0.22-0.48 0.51-0.89 0.89-1.22 0.37-0.34 0.78-0.59 1.23-0.77 0.45-0.18 0.92-0.27 1.39-0.27 0.64 0 1.25 0.15 1.85 0.47 0.6 0.31 1.09 0.77 1.47 1.4 0.38 0.62 0.57 1.36 0.57 2.22v0.19h-6.74c0.05 0.56 0.21 1.02 0.51 1.42 0.3 0.39 0.65 0.68 1.07 0.87 0.42 0.19 0.83 0.29 1.24 0.29 0.36 0 0.73-0.07 1.1-0.22 0.37-0.15 0.69-0.34 0.98-0.59 0.28-0.25 0.48-0.53 0.6-0.84h1.04c-0.21 0.57-0.51 1.06-0.91 1.46 -0.4 0.4-0.85 0.69-1.35 0.88 -0.5 0.19-1 0.28-1.5 0.28 -0.66-0.02-1.28-0.2-1.86-0.53 -0.58-0.33-1.04-0.78-1.39-1.38C486.31 343.09 486.14 342.41 486.14 341.65zM492.91 341.14c-0.08-0.43-0.26-0.83-0.53-1.19 -0.27-0.37-0.61-0.66-1.02-0.88s-0.85-0.33-1.33-0.33c-0.64 0-1.17 0.15-1.6 0.46 -0.42 0.3-0.74 0.64-0.94 1.02 -0.2 0.38-0.31 0.69-0.35 0.93h5.76V341.14zM496.23 336.15h-1.83v-0.82h4.65v0.82h-1.81v4.94h-1.01V336.15L496.23 336.15zM500.08 341.09v-5.76h1.46l1.65 4.05 1.71-4.05h1.46v5.76h-0.9v-4.94l-1.99 4.94h-0.53l-1.95-4.94v4.94H500.08z"/></svg>