
<svg version="1.1" xmlns="http://www.w3.org/2000/svg" xmlns:xlink="http://www.w3.org/1999/xlink"
	 width="9.24rem" height="3rem" viewBox="0 0 194.314 62.659" enable-background="new 0 0 194.314 62.659"
	 >
<g>
	<g>
		<g>
			<path fill="#A0C8EA" d="M90.889,4.393c-0.528,1.771-1.932,2.668-2.875,4.024c0.326,1.334,0.97,2.349,1.342,3.642
				c-1.086,1.691-3.696,1.916-4.98,3.831c1.414,1.919-0.822,4.735-0.385,7.858c0.114,0.822,0.677,1.319,0.958,2.109
				c-0.18,0.973-0.716,1.584-0.769,2.684c-1.434,0.482-1.782,2.051-3.063,2.684c-0.319,1.217-0.728,2.342-1.918,2.686
				c-0.411,1.205-1.104,2.084-0.957,3.447c0.155,1.461,1.46,2.699,2.3,3.451c0.518,1.818,4.229,7.34-0.19,7.477
				c-1.483-2.285-4.083-3.457-4.408-6.9c-0.667-0.355-1.299-0.744-1.727-1.342c-0.752,0.334-1.485,0.688-2.106,1.146
				c-1.612-2.014-4.081-0.275-6.323-0.381c-0.279,1.234,0.624,1.291,0.573,2.299c-0.458,0.395-1.354,0.574-1.533-0.189
				c-0.283,0.547-1.283,0.377-1.916,0.576c-0.846,0.141-0.787-0.623-1.343-0.77c-1.192,0.787-2.292-0.098-3.447,0.188
				c-1.717,0.426-1.854,3.229-4.024,3.066c-1.153,1.197-1.112,3.639,0,4.793c-1.74-0.041-3.297,0.195-4.408-0.576
				c-0.521-0.361-0.648-1.33-1.148-2.107c-0.412-0.641-1.296-1.24-1.728-1.916c-0.635-0.996-0.855-2.689-2.873-2.299
				c-0.661,0.359-0.61,1.432-1.342,1.727c-1.339-0.191-1.974-1.096-2.874-1.727c-0.007-2.039-1.719-2.373-2.492-3.643
				c-0.979,0.148-1.394-0.27-2.3-0.191c-0.521-0.137,0.137,0.904-0.384,0.77c-7.247,1.109-8.305-3.961-14.756-3.643
				c-0.27-3.057-2.782-3.861-4.791-5.176c0.111-2.031-0.953-2.883-1.534-4.217c0.112-2.048-0.721-4.237-1.531-5.942
				c0.474-1.091,0.035-2.469-0.191-3.448c-0.021-0.917,0.783-1.005,0.959-1.726c-0.299-4.707,2.548-6.908,2.875-11.117
				c0.095-1.22-0.407-2.191,0.384-3.448c0.75-0.408,1.05,1.056,2.104,0.957c0.712-0.142-0.015-0.957,0-1.532
				c9.415,3.487,20.979,4.825,34.11,4.599c0.534,0.086,1.45-0.364,1.727,0.193c2.522-0.126,3.811,1.067,6.706,0.766
				C61.418,7.376,60.172,8,59.961,8.706c1.378,0.892,1.168-0.929,2.566-1.249c0.909,0.798-0.171,1.339,0.958,1.917
				c1.081-0.323,1.846-0.966,3.065-1.15c-0.199,0.644,0.594,0.299,0.957,0.384c0.021,0.985,1.9,1.11,0.957,1.916
				c0.987,0.037,1.197,0.849,1.342,1.726c1.489,0.834,2.522,3.116,1.342,4.982c1.932,0.267,3.058-1.924,4.407-2.874
				c0.206-0.717-0.476-0.548-0.383-1.152c0.76-0.899,2.544-0.775,3.448-1.53c-0.77-1.388,0.69-2.379,1.147-3.644
				c2.09-0.529,4.152-1.084,5.175-2.684c-0.494-1.159-0.419-2.81-0.189-4.216c1.261,0.065,1.823-0.898,3.063-0.19
				c0.237,0.848,0.745,1.428,0.959,2.298C89.917,3.414,90.053,3.723,90.889,4.393z M88.014,11.291
				c-0.009-0.884,0.106-1.896-0.386-2.299C87.608,9.909,87.62,10.792,88.014,11.291z M65.21,18.19
				c0.904-1.699-0.817-3.678-0.384-5.366c0.207-0.799,1.156-1.212,1.149-1.916C64.095,11.779,63.723,16.785,65.21,18.19z
				 M64.06,12.825c0.17-0.031,0.1-1.06-0.19-0.384C63.819,12.555,63.948,12.846,64.06,12.825z"/>
		</g>
		<g>
			<g>
				<g enable-background="new    ">
					<path fill="#124B90" d="M80.712,20.989c0,2.204-0.968,3.307-2.905,3.307c-1.845,0-2.768-1.063-2.768-3.187v-4.842h0.73v4.775
						c0,0.866,0.174,1.513,0.522,1.942c0.349,0.429,0.888,0.645,1.618,0.645c1.379,0,2.067-0.836,2.067-2.509v-4.853h0.732v4.722
						H80.712z"/>
					<path fill="#124B90" d="M88.062,24.158l-4.379-6.333c-0.055-0.081-0.107-0.163-0.163-0.248
						c-0.053-0.084-0.096-0.166-0.129-0.247h-0.026c0.007,0.066,0.014,0.158,0.02,0.275c0.005,0.117,0.008,0.264,0.008,0.439v6.113
						h-0.73v-7.89h0.809l4.309,6.256c0.066,0.099,0.125,0.191,0.181,0.277c0.054,0.086,0.102,0.166,0.146,0.239h0.028
						c-0.015-0.121-0.026-0.257-0.033-0.407c-0.007-0.15-0.011-0.317-0.011-0.5v-5.865h0.737v7.89L88.062,24.158L88.062,24.158z"/>
					<path fill="#124B90" d="M91.6,24.158h-0.73v-7.89h0.73V24.158z"/>
					<path fill="#124B90" d="M95.909,16.938v7.219h-0.732v-7.219h-2.272v-0.671h5.283v0.671H95.909z"/>
					<path fill="#124B90" d="M99.485,24.158v-7.89h3.848v0.671h-3.114v2.895h2.883v0.66h-2.883v2.998h3.29v0.666H99.485z"/>
					<path fill="#124B90" d="M105.151,24.158v-7.89h2.074c1.353,0,2.37,0.323,3.062,0.971c0.688,0.647,1.032,1.604,1.032,2.869
						c0,0.609-0.096,1.163-0.287,1.662s-0.472,0.925-0.833,1.279c-0.363,0.354-0.806,0.627-1.32,0.819
						c-0.52,0.192-1.103,0.289-1.75,0.289L105.151,24.158L105.151,24.158z M105.885,16.938v6.553h1.211
						c0.542,0,1.027-0.073,1.455-0.22c0.427-0.146,0.789-0.362,1.086-0.646c0.297-0.284,0.523-0.636,0.68-1.054
						c0.157-0.418,0.234-0.898,0.234-1.441c0-2.128-1.125-3.191-3.373-3.191L105.885,16.938L105.885,16.938z"/>
					<path fill="#124B90" d="M115.677,23.001c0.133,0.099,0.278,0.188,0.438,0.267c0.158,0.079,0.321,0.146,0.488,0.198
						c0.166,0.053,0.334,0.094,0.504,0.121c0.168,0.027,0.33,0.041,0.483,0.041c0.599,0,1.046-0.115,1.343-0.347
						c0.297-0.23,0.445-0.563,0.445-0.996c0-0.209-0.035-0.392-0.104-0.547c-0.067-0.156-0.178-0.302-0.322-0.438
						c-0.147-0.136-0.332-0.271-0.558-0.404c-0.225-0.134-0.486-0.285-0.793-0.454c-0.337-0.184-0.626-0.355-0.866-0.521
						c-0.238-0.163-0.437-0.33-0.589-0.5c-0.15-0.171-0.264-0.355-0.336-0.553c-0.069-0.198-0.105-0.424-0.105-0.677
						c0-0.319,0.066-0.604,0.204-0.858c0.136-0.254,0.317-0.469,0.55-0.646c0.229-0.179,0.502-0.314,0.813-0.41
						c0.312-0.096,0.643-0.144,0.992-0.144c0.62,0,1.14,0.087,1.56,0.259v0.809c-0.468-0.268-1.015-0.401-1.642-0.401
						c-0.232,0-0.456,0.028-0.663,0.085c-0.207,0.058-0.389,0.141-0.544,0.251c-0.156,0.109-0.279,0.246-0.369,0.41
						c-0.09,0.163-0.135,0.353-0.135,0.569c0,0.205,0.03,0.382,0.09,0.53c0.063,0.148,0.158,0.289,0.293,0.421
						c0.133,0.133,0.311,0.264,0.527,0.394c0.219,0.131,0.485,0.28,0.801,0.448c0.33,0.177,0.618,0.348,0.863,0.515
						c0.246,0.167,0.451,0.342,0.614,0.522c0.163,0.182,0.283,0.375,0.364,0.578c0.08,0.204,0.121,0.43,0.121,0.68
						c0,0.345-0.063,0.648-0.191,0.91c-0.129,0.263-0.311,0.479-0.539,0.652c-0.23,0.173-0.506,0.303-0.825,0.391
						s-0.669,0.132-1.051,0.132c-0.125,0-0.273-0.01-0.446-0.03c-0.172-0.02-0.346-0.049-0.522-0.088
						c-0.176-0.038-0.344-0.084-0.503-0.138c-0.158-0.053-0.289-0.11-0.389-0.173L115.677,23.001L115.677,23.001z"/>
					<path fill="#124B90" d="M124.036,16.938v7.219h-0.731v-7.219h-2.271v-0.671h5.281v0.671H124.036z"/>
					<path fill="#124B90" d="M131.877,24.158l-0.869-2.333h-3.385l-0.85,2.333h-0.813l3.004-7.89h0.737l2.986,7.89H131.877z
						 M129.471,17.648c-0.026-0.07-0.053-0.15-0.08-0.242c-0.025-0.092-0.051-0.196-0.066-0.313h-0.022
						c-0.022,0.117-0.047,0.222-0.074,0.313c-0.026,0.092-0.054,0.172-0.08,0.242l-1.274,3.51h2.889L129.471,17.648z"/>
					<path fill="#124B90" d="M135.382,16.938v7.219h-0.731v-7.219h-2.271v-0.671h5.283v0.671H135.382z"/>
					<path fill="#124B90" d="M138.958,24.158v-7.89h3.847v0.671h-3.115v2.895h2.885v0.66h-2.885v2.998h3.291v0.666H138.958z"/>
					<path fill="#124B90" d="M144.315,23.001c0.135,0.099,0.278,0.188,0.438,0.267s0.323,0.146,0.49,0.198
						c0.166,0.053,0.334,0.094,0.504,0.121c0.168,0.027,0.33,0.041,0.481,0.041c0.601,0,1.046-0.115,1.345-0.347
						c0.297-0.23,0.443-0.563,0.443-0.996c0-0.209-0.035-0.392-0.104-0.547c-0.069-0.156-0.18-0.302-0.324-0.438
						c-0.147-0.136-0.332-0.271-0.556-0.404c-0.227-0.134-0.488-0.285-0.793-0.454c-0.339-0.184-0.626-0.355-0.866-0.521
						c-0.24-0.163-0.438-0.33-0.589-0.5c-0.152-0.171-0.266-0.355-0.336-0.553c-0.071-0.198-0.107-0.424-0.107-0.677
						c0-0.319,0.068-0.604,0.204-0.858c0.136-0.254,0.319-0.469,0.55-0.646c0.231-0.179,0.502-0.314,0.813-0.41
						c0.31-0.096,0.641-0.144,0.99-0.144c0.62,0,1.142,0.087,1.56,0.259v0.809c-0.466-0.268-1.014-0.401-1.642-0.401
						c-0.232,0-0.455,0.028-0.661,0.085c-0.207,0.058-0.391,0.141-0.545,0.251c-0.155,0.109-0.278,0.246-0.368,0.41
						c-0.091,0.163-0.137,0.353-0.137,0.569c0,0.205,0.03,0.382,0.092,0.53c0.061,0.148,0.156,0.289,0.293,0.421
						c0.133,0.133,0.309,0.264,0.525,0.394c0.22,0.131,0.485,0.28,0.801,0.448c0.33,0.177,0.618,0.348,0.863,0.515
						c0.246,0.167,0.451,0.342,0.614,0.522c0.163,0.182,0.285,0.375,0.366,0.578c0.08,0.204,0.121,0.43,0.121,0.68
						c0,0.345-0.064,0.648-0.193,0.91c-0.129,0.263-0.31,0.479-0.539,0.652s-0.506,0.303-0.825,0.391
						c-0.317,0.088-0.669,0.132-1.051,0.132c-0.125,0-0.273-0.01-0.446-0.03c-0.172-0.02-0.346-0.049-0.521-0.088
						c-0.176-0.038-0.344-0.084-0.503-0.138c-0.16-0.053-0.289-0.11-0.391-0.173L144.315,23.001L144.315,23.001z"/>
				</g>
			</g>
			<g>
				<g enable-background="new    ">
					<path fill="#124B90" d="M75.137,34.89v-7.889h2.074c1.35,0,2.37,0.322,3.059,0.971c0.69,0.646,1.035,1.604,1.035,2.869
						c0,0.609-0.096,1.162-0.289,1.662c-0.19,0.498-0.47,0.924-0.833,1.279c-0.363,0.354-0.803,0.627-1.32,0.816
						c-0.517,0.191-1.101,0.289-1.75,0.289L75.137,34.89L75.137,34.89z M75.87,27.671v6.553h1.21c0.542,0,1.026-0.072,1.455-0.219
						c0.427-0.148,0.79-0.363,1.087-0.646s0.521-0.637,0.679-1.055s0.234-0.896,0.234-1.439c0-2.129-1.124-3.191-3.373-3.191
						L75.87,27.671L75.87,27.671z"/>
					<path fill="#124B90" d="M83.617,34.89h-0.732v-7.889h0.732V34.89z"/>
					<path fill="#124B90" d="M90.781,34.89l-0.869-2.332h-3.386l-0.848,2.332h-0.813l3.004-7.889h0.735l2.988,7.889H90.781z
						 M88.377,28.382c-0.026-0.07-0.052-0.15-0.08-0.242s-0.051-0.197-0.069-0.313h-0.021c-0.022,0.115-0.047,0.221-0.074,0.313
						c-0.028,0.092-0.054,0.172-0.08,0.242l-1.276,3.51h2.891L88.377,28.382z"/>
					<path fill="#124B90" d="M92.839,34.89v-7.889h2.157c0.327,0,0.621,0.043,0.883,0.131s0.486,0.213,0.671,0.371
						c0.186,0.16,0.328,0.352,0.427,0.576c0.101,0.223,0.148,0.469,0.148,0.734c0,0.23-0.031,0.441-0.094,0.641
						c-0.063,0.195-0.152,0.379-0.271,0.541c-0.117,0.164-0.261,0.305-0.432,0.424s-0.364,0.215-0.581,0.283v0.021
						c0.264,0.023,0.504,0.09,0.721,0.191s0.402,0.236,0.556,0.4c0.154,0.164,0.273,0.359,0.358,0.58
						c0.084,0.223,0.126,0.467,0.126,0.73c0,0.334-0.062,0.639-0.182,0.916c-0.121,0.275-0.291,0.516-0.511,0.715
						c-0.218,0.201-0.478,0.355-0.777,0.465c-0.303,0.111-0.634,0.166-0.996,0.166L92.839,34.89L92.839,34.89z M93.57,27.671v2.801
						h1.023c0.268,0,0.51-0.035,0.726-0.104c0.218-0.068,0.402-0.17,0.558-0.303c0.152-0.133,0.271-0.293,0.354-0.479
						c0.083-0.189,0.124-0.398,0.124-0.633c0-0.855-0.53-1.283-1.595-1.283H93.57z M93.57,31.132v3.092h1.359
						c0.583,0,1.032-0.137,1.345-0.408c0.313-0.273,0.472-0.66,0.472-1.164c0-1.014-0.688-1.52-2.063-1.52H93.57z"/>
					<path fill="#124B90" d="M99.133,34.89v-7.889h3.847v0.67h-3.114v2.895h2.883v0.66h-2.883v2.998h3.288v0.666H99.133z"/>
					<path fill="#124B90" d="M107.078,27.671v7.219h-0.731v-7.219h-2.271v-0.67h5.28v0.67H107.078z"/>
					<path fill="#124B90" d="M110.653,34.89v-7.889h3.849v0.67h-3.114v2.895h2.883v0.66h-2.883v2.998h3.29v0.666H110.653z"/>
					<path fill="#124B90" d="M116.012,33.735c0.133,0.1,0.278,0.188,0.438,0.268c0.158,0.078,0.321,0.146,0.488,0.197
						c0.166,0.053,0.334,0.094,0.504,0.121c0.168,0.027,0.33,0.041,0.483,0.041c0.599,0,1.046-0.115,1.343-0.348
						c0.297-0.229,0.445-0.563,0.445-0.996c0-0.209-0.035-0.391-0.104-0.547c-0.067-0.156-0.178-0.301-0.322-0.438
						c-0.147-0.137-0.332-0.271-0.558-0.402c-0.225-0.135-0.486-0.285-0.793-0.455c-0.337-0.184-0.626-0.354-0.864-0.52
						c-0.24-0.162-0.438-0.33-0.591-0.5c-0.15-0.172-0.264-0.355-0.336-0.555c-0.069-0.195-0.105-0.424-0.105-0.676
						c0-0.32,0.066-0.604,0.204-0.859c0.136-0.254,0.317-0.469,0.55-0.645c0.229-0.18,0.502-0.314,0.813-0.41
						c0.312-0.098,0.643-0.145,0.992-0.145c0.62,0,1.142,0.086,1.56,0.258v0.811c-0.468-0.27-1.015-0.4-1.642-0.4
						c-0.232,0-0.456,0.027-0.663,0.086c-0.207,0.057-0.389,0.141-0.544,0.25c-0.154,0.107-0.277,0.246-0.369,0.41
						c-0.09,0.164-0.135,0.354-0.135,0.568c0,0.205,0.03,0.381,0.09,0.529c0.063,0.148,0.158,0.289,0.293,0.422
						s0.311,0.264,0.527,0.395c0.219,0.131,0.485,0.279,0.801,0.447c0.33,0.178,0.618,0.35,0.863,0.516
						c0.246,0.168,0.451,0.342,0.614,0.521c0.163,0.184,0.283,0.375,0.364,0.578c0.08,0.203,0.121,0.43,0.121,0.68
						c0,0.346-0.063,0.646-0.191,0.91s-0.311,0.479-0.539,0.65c-0.23,0.174-0.506,0.305-0.825,0.393s-0.669,0.131-1.051,0.131
						c-0.125,0-0.273-0.01-0.446-0.027c-0.172-0.021-0.346-0.051-0.521-0.088c-0.178-0.039-0.346-0.084-0.505-0.141
						c-0.158-0.053-0.287-0.107-0.389-0.172L116.012,33.735L116.012,33.735z"/>
				</g>
			</g>
			<g enable-background="new    ">
				<path fill="#124B90" d="M74.83,44.468c0.132,0.1,0.276,0.189,0.438,0.268c0.16,0.078,0.323,0.146,0.49,0.197
					c0.167,0.055,0.334,0.096,0.503,0.121c0.168,0.027,0.33,0.041,0.484,0.041c0.598,0,1.045-0.115,1.343-0.346
					c0.297-0.23,0.446-0.564,0.446-0.996c0-0.209-0.035-0.395-0.105-0.547c-0.069-0.156-0.178-0.305-0.324-0.439
					c-0.146-0.135-0.332-0.27-0.556-0.402c-0.224-0.135-0.488-0.285-0.792-0.455c-0.337-0.184-0.626-0.355-0.867-0.521
					c-0.24-0.162-0.437-0.33-0.589-0.5s-0.264-0.354-0.335-0.553c-0.072-0.197-0.107-0.424-0.107-0.676
					c0-0.32,0.068-0.605,0.204-0.859c0.138-0.254,0.319-0.469,0.55-0.645c0.231-0.182,0.503-0.314,0.813-0.41
					c0.311-0.098,0.641-0.146,0.993-0.146c0.62,0,1.139,0.088,1.557,0.26v0.811c-0.466-0.27-1.012-0.402-1.64-0.402
					c-0.235,0-0.456,0.029-0.663,0.086c-0.207,0.059-0.389,0.141-0.544,0.25c-0.156,0.109-0.279,0.246-0.369,0.41
					s-0.135,0.354-0.135,0.57c0,0.205,0.028,0.381,0.09,0.529c0.061,0.146,0.158,0.287,0.292,0.422
					c0.134,0.133,0.31,0.264,0.528,0.393c0.218,0.131,0.483,0.281,0.801,0.449c0.33,0.176,0.618,0.348,0.864,0.514
					c0.244,0.168,0.448,0.342,0.612,0.523c0.163,0.182,0.285,0.375,0.366,0.578c0.081,0.201,0.121,0.43,0.121,0.68
					c0,0.344-0.064,0.646-0.193,0.91c-0.128,0.262-0.308,0.479-0.539,0.65c-0.229,0.174-0.506,0.305-0.823,0.393
					c-0.319,0.088-0.669,0.131-1.053,0.131c-0.125,0-0.271-0.01-0.444-0.029c-0.172-0.02-0.349-0.049-0.523-0.088
					c-0.176-0.039-0.344-0.084-0.503-0.139c-0.159-0.053-0.289-0.109-0.388-0.172v-0.859H74.83z"/>
				<path fill="#124B90" d="M86.506,42.454c0,2.205-0.968,3.307-2.905,3.307c-1.845,0-2.768-1.063-2.768-3.186v-4.844h0.73v4.775
					c0,0.865,0.176,1.514,0.522,1.941c0.349,0.43,0.888,0.645,1.618,0.645c1.379,0,2.067-0.836,2.067-2.51v-4.852h0.732v4.723
					H86.506z"/>
				<path fill="#124B90" d="M92.751,45.624l-1.188-2.262c-0.118-0.227-0.229-0.41-0.341-0.563s-0.224-0.271-0.341-0.361
					c-0.117-0.088-0.243-0.152-0.377-0.191c-0.134-0.037-0.283-0.059-0.448-0.059h-0.869v3.436h-0.731v-7.893h2.271
					c0.297,0,0.584,0.045,0.861,0.135c0.276,0.088,0.522,0.217,0.74,0.391c0.216,0.172,0.39,0.389,0.52,0.648
					c0.13,0.258,0.195,0.563,0.195,0.906c0,0.279-0.042,0.535-0.126,0.771c-0.084,0.234-0.205,0.441-0.36,0.625
					c-0.156,0.182-0.345,0.336-0.565,0.463c-0.224,0.125-0.474,0.221-0.753,0.283v0.02c0.106,0.045,0.204,0.104,0.292,0.17
					c0.09,0.07,0.175,0.154,0.258,0.254c0.083,0.102,0.164,0.215,0.245,0.344c0.079,0.127,0.163,0.271,0.253,0.438l1.324,2.441
					h-0.858V45.624L92.751,45.624z M89.185,38.405v3.119h1.311c0.264,0,0.506-0.037,0.727-0.115c0.221-0.076,0.408-0.188,0.564-0.33
					c0.154-0.143,0.275-0.314,0.361-0.518s0.129-0.43,0.129-0.682c0-0.459-0.146-0.82-0.441-1.082
					c-0.295-0.262-0.724-0.393-1.279-0.393H89.185L89.185,38.405z"/>
				<path fill="#124B90" d="M97.675,45.624H96.96l-2.872-7.893h0.82l2.232,6.307c0.04,0.119,0.076,0.234,0.107,0.354
					c0.029,0.119,0.056,0.244,0.075,0.371h0.021c0.018-0.104,0.044-0.215,0.077-0.338s0.075-0.256,0.127-0.398l2.327-6.295h0.792
					L97.675,45.624z"/>
				<path fill="#124B90" d="M101.85,45.624v-7.893h3.846v0.674h-3.111V41.3h2.883v0.66h-2.883v2.998h3.289v0.666H101.85z"/>
				<path fill="#124B90" d="M108.25,45.624h-0.731v-7.893h0.731V45.624z"/>
				<path fill="#124B90" d="M110.302,45.624v-7.893h0.732v7.227h3.168v0.666H110.302z"/>
				<path fill="#124B90" d="M115.535,45.624v-7.893h0.73v7.227h3.168v0.666H115.535z"/>
				<path fill="#124B90" d="M126.204,45.624l-0.869-2.334h-3.384l-0.85,2.334h-0.813l3.004-7.893h0.736l2.987,7.893H126.204z
					 M123.8,39.116c-0.026-0.07-0.052-0.15-0.079-0.242c-0.028-0.092-0.051-0.195-0.069-0.313h-0.021
					c-0.021,0.117-0.047,0.223-0.074,0.313c-0.027,0.092-0.054,0.172-0.08,0.242l-1.273,3.51h2.889L123.8,39.116z"/>
				<path fill="#124B90" d="M133.664,45.624l-4.379-6.334c-0.057-0.08-0.109-0.162-0.162-0.248
					c-0.056-0.084-0.099-0.166-0.129-0.246h-0.028c0.007,0.066,0.014,0.158,0.02,0.275c0.007,0.115,0.011,0.264,0.011,0.438v6.111
					h-0.732v-7.891h0.811l4.309,6.258c0.066,0.098,0.125,0.189,0.179,0.275c0.056,0.086,0.104,0.166,0.146,0.24h0.025
					c-0.014-0.121-0.023-0.258-0.031-0.408c-0.009-0.148-0.012-0.316-0.012-0.5v-5.863h0.736v7.891h-0.762L133.664,45.624
					L133.664,45.624z"/>
				<path fill="#124B90" d="M141.774,45.331c-0.607,0.287-1.305,0.43-2.086,0.43c-0.557,0-1.063-0.098-1.518-0.295
					c-0.455-0.195-0.844-0.467-1.164-0.816c-0.321-0.348-0.568-0.762-0.743-1.242s-0.261-1.006-0.261-1.574
					c0-0.598,0.092-1.152,0.275-1.67c0.187-0.516,0.45-0.963,0.797-1.342c0.345-0.381,0.762-0.68,1.252-0.895
					c0.488-0.217,1.039-0.326,1.646-0.326c0.671,0,1.271,0.105,1.799,0.311v0.779c-0.563-0.281-1.168-0.424-1.811-0.424
					c-0.51,0-0.963,0.088-1.359,0.266c-0.396,0.176-0.729,0.422-1.001,0.734c-0.271,0.313-0.479,0.684-0.622,1.111
					c-0.143,0.426-0.215,0.893-0.215,1.4c0,0.451,0.064,0.883,0.193,1.281c0.129,0.402,0.316,0.754,0.567,1.057
					c0.251,0.301,0.563,0.539,0.938,0.715c0.374,0.176,0.809,0.264,1.304,0.264c0.759,0,1.427-0.158,2.003-0.479v0.715H141.774
					L141.774,45.331z"/>
				<path fill="#124B90" d="M143.459,45.624v-7.893h3.846v0.674h-3.113V41.3h2.885v0.66h-2.885v2.998h3.289v0.666H143.459z"/>
				<path fill="#124B90" d="M151.903,44.468c0.135,0.1,0.278,0.189,0.438,0.268s0.323,0.146,0.49,0.197
					c0.166,0.055,0.334,0.096,0.504,0.121c0.168,0.027,0.33,0.041,0.481,0.041c0.601,0,1.048-0.115,1.345-0.346
					s0.443-0.564,0.443-0.996c0-0.209-0.034-0.395-0.104-0.547c-0.069-0.156-0.178-0.305-0.324-0.439
					c-0.146-0.135-0.332-0.27-0.556-0.402c-0.227-0.135-0.488-0.285-0.793-0.455c-0.337-0.184-0.626-0.355-0.866-0.521
					c-0.24-0.162-0.438-0.33-0.589-0.5c-0.152-0.17-0.266-0.354-0.336-0.553c-0.071-0.197-0.107-0.424-0.107-0.676
					c0-0.32,0.068-0.605,0.204-0.859s0.319-0.469,0.55-0.645c0.231-0.182,0.502-0.314,0.813-0.41
					c0.31-0.098,0.641-0.146,0.992-0.146c0.618,0,1.14,0.088,1.558,0.26v0.811c-0.466-0.27-1.013-0.402-1.64-0.402
					c-0.234,0-0.456,0.029-0.663,0.086c-0.207,0.059-0.391,0.141-0.544,0.25c-0.156,0.109-0.279,0.246-0.369,0.41
					s-0.136,0.354-0.136,0.57c0,0.205,0.029,0.381,0.091,0.529c0.061,0.146,0.156,0.287,0.293,0.422
					c0.133,0.133,0.309,0.264,0.525,0.393c0.221,0.131,0.485,0.281,0.803,0.449c0.329,0.176,0.616,0.348,0.861,0.514
					c0.246,0.168,0.451,0.342,0.614,0.523s0.285,0.375,0.366,0.578c0.08,0.201,0.121,0.43,0.121,0.68
					c0,0.344-0.064,0.646-0.193,0.91c-0.129,0.262-0.309,0.479-0.539,0.65c-0.229,0.174-0.506,0.305-0.825,0.393
					c-0.317,0.088-0.669,0.131-1.051,0.131c-0.125,0-0.271-0.01-0.446-0.029c-0.172-0.02-0.346-0.049-0.521-0.088
					c-0.176-0.039-0.344-0.084-0.503-0.139c-0.16-0.053-0.289-0.109-0.391-0.172L151.903,44.468L151.903,44.468z"/>
				<path fill="#124B90" d="M160.378,42.669v2.955h-0.731v-2.939l-2.477-4.951h0.831l1.805,3.688
					c0.022,0.045,0.052,0.109,0.088,0.197s0.081,0.201,0.132,0.336h0.019c0.021-0.064,0.054-0.145,0.094-0.23
					s0.09-0.188,0.148-0.297l1.888-3.689h0.781L160.378,42.669z"/>
				<path fill="#124B90" d="M163.707,44.468c0.131,0.1,0.275,0.189,0.438,0.268c0.159,0.078,0.322,0.146,0.489,0.197
					c0.167,0.053,0.335,0.096,0.503,0.121c0.169,0.027,0.33,0.041,0.484,0.041c0.598,0,1.045-0.115,1.343-0.346
					c0.297-0.23,0.446-0.564,0.446-0.996c0-0.209-0.035-0.395-0.105-0.547c-0.069-0.156-0.178-0.305-0.324-0.439
					c-0.146-0.135-0.332-0.27-0.557-0.402c-0.223-0.135-0.487-0.285-0.791-0.455c-0.338-0.184-0.627-0.355-0.867-0.521
					c-0.24-0.162-0.437-0.33-0.589-0.5c-0.151-0.17-0.265-0.354-0.335-0.553c-0.072-0.197-0.107-0.424-0.107-0.676
					c0-0.32,0.067-0.605,0.203-0.859c0.138-0.254,0.319-0.469,0.551-0.645c0.23-0.182,0.503-0.314,0.813-0.41
					c0.311-0.098,0.642-0.146,0.994-0.146c0.619,0,1.139,0.088,1.557,0.26v0.811c-0.466-0.27-1.012-0.402-1.64-0.402
					c-0.235,0-0.456,0.029-0.663,0.086c-0.207,0.059-0.389,0.141-0.545,0.25s-0.278,0.246-0.368,0.41
					c-0.091,0.164-0.135,0.354-0.135,0.57c0,0.205,0.028,0.381,0.091,0.529c0.061,0.146,0.157,0.287,0.291,0.422
					c0.135,0.133,0.311,0.264,0.528,0.393c0.218,0.131,0.483,0.281,0.801,0.449c0.33,0.176,0.618,0.348,0.864,0.514
					c0.243,0.168,0.447,0.342,0.611,0.523c0.163,0.182,0.285,0.375,0.365,0.578c0.081,0.201,0.121,0.43,0.121,0.68
					c0,0.344-0.064,0.646-0.192,0.91c-0.128,0.262-0.308,0.479-0.539,0.65c-0.229,0.174-0.507,0.305-0.823,0.393
					c-0.319,0.088-0.67,0.131-1.053,0.131c-0.125,0-0.271-0.01-0.443-0.029c-0.173-0.02-0.35-0.049-0.523-0.088
					c-0.176-0.039-0.344-0.084-0.504-0.139c-0.158-0.053-0.288-0.109-0.387-0.172L163.707,44.468L163.707,44.468z"/>
				<path fill="#124B90" d="M172.063,38.405v7.219h-0.73v-7.219h-2.271v-0.672h5.281v0.672H172.063z"/>
				<path fill="#124B90" d="M175.639,45.624v-7.893h3.846v0.674h-3.111V41.3h2.883v0.66h-2.883v2.998h3.289v0.666H175.639z"/>
				<path fill="#124B90" d="M188.291,45.624v-5.447c0-0.279,0.021-0.729,0.063-1.348h-0.021c-0.051,0.164-0.1,0.307-0.143,0.428
					c-0.041,0.121-0.081,0.221-0.115,0.297l-2.752,6.07h-0.313l-2.758-6.031c-0.08-0.184-0.162-0.441-0.247-0.775h-0.022
					c0.018,0.17,0.025,0.361,0.031,0.578c0.005,0.217,0.008,0.457,0.008,0.721v5.508h-0.715v-7.891h0.863l2.68,5.932
					c0.056,0.125,0.109,0.254,0.162,0.385c0.053,0.129,0.104,0.268,0.146,0.414h0.03c0.054-0.146,0.101-0.279,0.143-0.4
					s0.095-0.252,0.155-0.391l2.701-5.939h0.82v7.891H188.291L188.291,45.624z"/>
			</g>
		</g>
		<g enable-background="new    ">
			<path fill="#124B90" d="M12.87,30.837c0,4.539-2.116,6.811-6.349,6.811c-4.104,0-6.155-2.219-6.155-6.652v-8.729h3.416v8.772
				c0,2.443,0.954,3.668,2.866,3.668c1.876,0,2.815-1.182,2.815-3.541v-8.899h3.405L12.87,30.837L12.87,30.837z"/>
			<path fill="#124B90" d="M15.463,36.804v-3.373c0.611,0.512,1.273,0.896,1.993,1.154c0.717,0.256,1.438,0.385,2.171,0.385
				c0.429,0,0.803-0.039,1.123-0.117c0.318-0.076,0.587-0.184,0.801-0.32c0.214-0.139,0.374-0.299,0.479-0.484
				c0.105-0.186,0.158-0.389,0.158-0.605c0-0.295-0.084-0.559-0.253-0.791c-0.169-0.23-0.397-0.443-0.688-0.643
				c-0.292-0.197-0.64-0.387-1.039-0.57c-0.401-0.182-0.833-0.367-1.297-0.559c-1.183-0.492-2.063-1.094-2.643-1.803
				c-0.58-0.711-0.87-1.566-0.87-2.572c0-0.787,0.158-1.464,0.477-2.029c0.315-0.565,0.747-1.031,1.292-1.397
				c0.544-0.365,1.175-0.634,1.892-0.806c0.717-0.173,1.478-0.259,2.277-0.259c0.787,0,1.483,0.048,2.093,0.143
				c0.608,0.095,1.168,0.24,1.682,0.438v3.151c-0.253-0.176-0.527-0.33-0.826-0.463c-0.301-0.135-0.606-0.245-0.924-0.333
				c-0.314-0.088-0.631-0.153-0.942-0.195c-0.313-0.042-0.61-0.063-0.893-0.063c-0.387,0-0.736,0.037-1.054,0.111
				c-0.316,0.073-0.583,0.177-0.801,0.311c-0.218,0.133-0.387,0.293-0.506,0.479c-0.12,0.188-0.181,0.396-0.181,0.628
				c0,0.253,0.067,0.48,0.201,0.68c0.133,0.201,0.323,0.393,0.569,0.57s0.544,0.354,0.896,0.525
				c0.353,0.172,0.749,0.352,1.191,0.533c0.604,0.252,1.146,0.521,1.628,0.807c0.481,0.283,0.896,0.604,1.239,0.965
				c0.344,0.357,0.606,0.77,0.791,1.229c0.183,0.461,0.272,0.994,0.272,1.605c0,0.844-0.16,1.553-0.479,2.125
				c-0.32,0.572-0.754,1.037-1.302,1.393c-0.55,0.354-1.188,0.609-1.914,0.764c-0.729,0.156-1.495,0.232-2.305,0.232
				c-0.83,0-1.618-0.07-2.365-0.211C16.66,37.296,16.01,37.085,15.463,36.804z"/>
			<path fill="#124B90" d="M28.261,37.384V22.265h5.355c5.368,0,8.055,2.457,8.055,7.369c0,2.355-0.733,4.236-2.198,5.641
				c-1.465,1.406-3.417,2.109-5.854,2.109H28.261z M31.667,25.037v9.585h1.687c1.478,0,2.634-0.443,3.476-1.33
				c0.84-0.885,1.26-2.09,1.26-3.615c0-1.439-0.417-2.574-1.25-3.399c-0.833-0.826-2.001-1.24-3.505-1.24L31.667,25.037
				L31.667,25.037z"/>
			<path fill="#124B90" d="M43.485,36.804v-3.373c0.611,0.512,1.275,0.896,1.993,1.154c0.717,0.256,1.44,0.385,2.171,0.385
				c0.431,0,0.805-0.039,1.123-0.117c0.32-0.076,0.587-0.184,0.803-0.32c0.214-0.139,0.374-0.299,0.479-0.484
				c0.105-0.186,0.158-0.389,0.158-0.605c0-0.295-0.084-0.559-0.253-0.791c-0.169-0.23-0.399-0.443-0.69-0.643
				c-0.292-0.197-0.638-0.387-1.039-0.57c-0.399-0.182-0.833-0.367-1.297-0.559c-1.181-0.492-2.061-1.094-2.641-1.803
				c-0.58-0.711-0.87-1.566-0.87-2.572c0-0.787,0.158-1.464,0.475-2.029c0.317-0.565,0.747-1.031,1.292-1.397
				c0.544-0.365,1.176-0.634,1.894-0.806c0.717-0.173,1.476-0.259,2.275-0.259c0.787,0,1.485,0.048,2.095,0.143
				c0.606,0.095,1.168,0.24,1.682,0.438v3.151c-0.253-0.176-0.529-0.33-0.828-0.463c-0.299-0.135-0.604-0.245-0.922-0.333
				s-0.631-0.153-0.944-0.195c-0.313-0.042-0.608-0.063-0.891-0.063c-0.387,0-0.738,0.037-1.054,0.111
				c-0.316,0.073-0.583,0.177-0.803,0.311c-0.218,0.133-0.387,0.293-0.506,0.479c-0.12,0.188-0.179,0.396-0.179,0.628
				c0,0.253,0.067,0.48,0.201,0.68c0.133,0.201,0.323,0.393,0.567,0.57c0.246,0.178,0.544,0.354,0.896,0.525
				c0.351,0.172,0.749,0.352,1.191,0.533c0.604,0.252,1.146,0.521,1.628,0.807c0.479,0.283,0.895,0.604,1.237,0.965
				c0.346,0.357,0.608,0.77,0.791,1.229c0.185,0.461,0.274,0.994,0.274,1.605c0,0.844-0.16,1.553-0.479,2.125
				c-0.318,0.572-0.754,1.037-1.302,1.393c-0.548,0.354-1.186,0.609-1.914,0.764c-0.727,0.156-1.495,0.232-2.303,0.232
				c-0.83,0-1.619-0.07-2.367-0.211C44.681,37.296,44.034,37.085,43.485,36.804z"/>
			<path fill="#124B90" d="M55.588,36.804v-3.373c0.611,0.512,1.273,0.896,1.993,1.154c0.717,0.256,1.438,0.385,2.171,0.385
				c0.429,0,0.803-0.039,1.123-0.117c0.318-0.076,0.587-0.184,0.801-0.32c0.214-0.139,0.374-0.299,0.479-0.484
				c0.105-0.186,0.158-0.389,0.158-0.605c0-0.295-0.084-0.559-0.253-0.791c-0.169-0.23-0.397-0.443-0.688-0.643
				c-0.292-0.197-0.64-0.387-1.039-0.57c-0.401-0.182-0.833-0.367-1.297-0.559c-1.183-0.492-2.063-1.094-2.643-1.803
				c-0.58-0.711-0.87-1.566-0.87-2.572c0-0.787,0.158-1.464,0.477-2.029c0.315-0.565,0.747-1.031,1.292-1.397
				c0.544-0.365,1.175-0.634,1.892-0.806c0.717-0.173,1.478-0.259,2.277-0.259c0.787,0,1.483,0.048,2.093,0.143
				c0.608,0.095,1.168,0.24,1.682,0.438v3.151c-0.253-0.176-0.527-0.33-0.826-0.463c-0.301-0.135-0.606-0.245-0.924-0.333
				c-0.314-0.088-0.631-0.153-0.942-0.195c-0.313-0.042-0.61-0.063-0.893-0.063c-0.387,0-0.736,0.037-1.054,0.111
				c-0.316,0.073-0.583,0.177-0.801,0.311c-0.218,0.133-0.387,0.293-0.506,0.479c-0.12,0.188-0.181,0.396-0.181,0.628
				c0,0.253,0.067,0.48,0.201,0.68c0.133,0.201,0.323,0.393,0.569,0.57s0.544,0.354,0.896,0.525
				c0.353,0.172,0.749,0.352,1.191,0.533c0.604,0.252,1.146,0.521,1.628,0.807c0.481,0.283,0.895,0.604,1.239,0.965
				c0.344,0.357,0.606,0.77,0.791,1.229c0.183,0.461,0.272,0.994,0.272,1.605c0,0.844-0.16,1.553-0.479,2.125
				c-0.32,0.572-0.754,1.037-1.302,1.393c-0.55,0.354-1.188,0.609-1.914,0.764c-0.729,0.156-1.495,0.232-2.305,0.232
				c-0.83,0-1.618-0.07-2.365-0.211C56.785,37.296,56.135,37.085,55.588,36.804z"/>
		</g>
		<g>
			<rect x="70.035" y="15.9" fill="#124B90" width="1" height="30.03"/>
		</g>
	</g>
	<path fill="#357ABD" d="M156.929,12.776c-0.614-1.87-2.161-3.328-3.895-4.222c-1.741-0.919-3.646-1.455-5.555-1.855
		c-3.831-0.772-7.73-1.009-11.612-1.117c-3.888-0.095-7.771-0.018-11.648,0.137c-15.506,0.677-30.958,2.337-46.288,4.787
		c-13.346,2.143-26.595,4.911-39.689,8.289h13.609c8.771-2.222,17.617-4.178,26.522-5.846c15.163-2.835,30.503-4.871,45.916-5.967
		c3.854-0.26,7.711-0.441,11.565-0.451c3.854,0.001,7.723,0.133,11.501,0.789c1.883,0.342,3.754,0.815,5.452,1.654
		c1.689,0.82,3.175,2.144,3.813,3.909c0.66,1.753,0.584,3.697,0.35,5.56c-0.246,1.875-0.669,3.728-1.06,5.583
		c0.095-0.393,0.188-0.786,0.286-1.179c0.032-0.154,0.063-0.308,0.101-0.46c-0.042,0.153-0.094,0.302-0.132,0.455
		c0.087-0.405,0.199-0.804,0.307-1.204c0.072-0.306,0.146-0.614,0.218-0.92c0.165-0.747,0.318-1.496,0.44-2.251
		C157.421,16.598,157.564,14.63,156.929,12.776z"/>
	<path fill="#329F48" d="M157.392,11.492c-0.782-2.022-2.608-3.452-4.52-4.366c-1.934-0.935-4.008-1.505-6.091-1.947
		c-4.183-0.858-8.438-1.193-12.681-1.392c-4.247-0.187-8.496-0.192-12.74-0.117c-8.489,0.182-16.959,0.621-25.428,1.338
		c-8.461,0.731-16.895,1.775-25.289,3.063c-16.789,2.582-33.417,6.125-49.852,10.37c-0.446,0.115-0.892,0.236-1.336,0.353h14.194
		c12.358-3.215,24.839-5.999,37.424-8.237c8.31-1.474,16.665-2.707,25.058-3.631c8.392-0.899,16.836-1.568,25.273-1.961
		c4.221-0.184,8.444-0.286,12.664-0.208c4.217,0.089,8.443,0.315,12.58,1.056c2.063,0.381,4.111,0.892,6.008,1.749
		c1.875,0.843,3.635,2.152,4.427,4.05c0.808,1.89,0.636,4.039,0.272,6.055c-0.187,1.022-0.423,2.036-0.665,3.048
		c-0.028,0.14-0.059,0.28-0.09,0.419c0.184-0.642,0.375-1.28,0.566-1.918c0.126-0.504,0.245-1.01,0.352-1.52
		C157.935,15.683,158.184,13.502,157.392,11.492z"/>
	<path fill="#B4D789" d="M158.411,12.192c-0.177-1.227-0.676-2.418-1.437-3.419c-1.542-2.021-3.854-3.258-6.156-4.177
		c-2.332-0.914-4.766-1.515-7.211-1.99c-4.899-0.928-9.872-1.336-14.835-1.578c-4.965-0.229-9.936-0.258-14.897-0.179
		c-19.859,0.188-39.676,2.6-59.207,6.003c-18.104,3.182-36.024,7.271-53.775,11.942h14.979c13.024-3.385,26.146-6.417,39.368-8.954
		c9.686-1.852,19.425-3.436,29.212-4.636c4.895-0.6,9.799-1.099,14.714-1.479c4.919-0.406,9.844-0.758,14.771-0.993
		c4.931-0.234,9.862-0.363,14.792-0.292c4.924,0.083,9.857,0.332,14.71,1.093c2.42,0.391,4.827,0.906,7.122,1.722
		c2.271,0.821,4.521,1.947,6.032,3.802c0.746,0.921,1.254,2.022,1.462,3.19c0.214,1.169,0.151,2.382-0.043,3.566
		c-0.186,1.152-0.506,2.278-0.842,3.402c-0.151,0.606-0.313,1.208-0.473,1.812c0.552-1.709,1.2-3.393,1.55-5.172
		C158.486,14.661,158.594,13.42,158.411,12.192z"/>
	<g>
		<path fill="#124B90" d="M1.348,61.354v-8.203h2.369c3.024,0,4.537,1.334,4.537,3.998c0,1.268-0.42,2.283-1.259,3.053
			c-0.839,0.768-1.964,1.152-3.375,1.152H1.348z M2.704,54.308v5.896h1.087c0.958,0,1.702-0.264,2.234-0.789
			c0.532-0.525,0.798-1.27,0.798-2.23c0-1.918-0.994-2.877-2.98-2.877H2.704z"/>
		<path fill="#124B90" d="M9.922,54.267c-0.217,0-0.403-0.07-0.558-0.211c-0.155-0.141-0.232-0.32-0.232-0.537
			s0.077-0.398,0.232-0.543c0.154-0.146,0.34-0.219,0.558-0.219c0.225,0,0.416,0.072,0.572,0.219
			c0.156,0.145,0.234,0.326,0.234,0.543c0,0.205-0.078,0.383-0.234,0.529S10.147,54.267,9.922,54.267z M10.58,61.354H9.252v-5.857
			h1.328V61.354z"/>
		<path fill="#124B90" d="M17.605,55.497l-2.266,5.857h-1.436l-2.157-5.857h1.442l1.299,4.096c0.099,0.301,0.16,0.564,0.183,0.789
			h0.017c0.034-0.283,0.088-0.537,0.16-0.766l1.362-4.119H17.605z"/>
		<path fill="#124B90" d="M19.102,54.267c-0.217,0-0.403-0.07-0.558-0.211c-0.155-0.141-0.232-0.32-0.232-0.537
			s0.077-0.398,0.232-0.543c0.154-0.146,0.34-0.219,0.558-0.219c0.225,0,0.416,0.072,0.572,0.219
			c0.156,0.145,0.234,0.326,0.234,0.543c0,0.205-0.078,0.383-0.234,0.529S19.327,54.267,19.102,54.267z M19.76,61.354h-1.328v-5.857
			h1.328V61.354z"/>
		<path fill="#124B90" d="M21.374,61.171v-1.23c0.496,0.379,1.043,0.566,1.642,0.566c0.801,0,1.202-0.236,1.202-0.709
			c0-0.133-0.034-0.246-0.103-0.34s-0.161-0.176-0.277-0.248c-0.117-0.072-0.254-0.139-0.412-0.195s-0.334-0.121-0.529-0.195
			c-0.24-0.094-0.457-0.195-0.649-0.303c-0.192-0.105-0.353-0.227-0.48-0.363c-0.128-0.135-0.224-0.289-0.289-0.459
			c-0.065-0.172-0.097-0.373-0.097-0.602c0-0.281,0.067-0.531,0.2-0.746c0.134-0.215,0.313-0.396,0.538-0.543
			c0.225-0.146,0.48-0.258,0.767-0.332s0.582-0.111,0.887-0.111c0.542,0,1.026,0.082,1.453,0.246v1.16
			c-0.412-0.281-0.885-0.424-1.419-0.424c-0.168,0-0.319,0.018-0.455,0.053c-0.136,0.033-0.251,0.082-0.346,0.143
			c-0.096,0.061-0.17,0.135-0.223,0.221c-0.054,0.086-0.08,0.18-0.08,0.283c0,0.125,0.026,0.232,0.08,0.32
			c0.053,0.088,0.132,0.164,0.237,0.23s0.231,0.129,0.377,0.184c0.147,0.055,0.316,0.115,0.506,0.18
			c0.252,0.104,0.478,0.209,0.678,0.314c0.2,0.107,0.371,0.229,0.512,0.363c0.141,0.137,0.25,0.293,0.326,0.469
			c0.077,0.178,0.115,0.389,0.115,0.633c0,0.297-0.069,0.557-0.206,0.777c-0.137,0.223-0.32,0.404-0.549,0.549
			c-0.229,0.146-0.493,0.254-0.792,0.324s-0.615,0.105-0.947,0.105C22.398,61.491,21.843,61.384,21.374,61.171z"/>
		<path fill="#124B90" d="M27.473,54.267c-0.217,0-0.403-0.07-0.558-0.211c-0.155-0.141-0.232-0.32-0.232-0.537
			s0.077-0.398,0.232-0.543c0.154-0.146,0.34-0.219,0.558-0.219c0.225,0,0.416,0.072,0.572,0.219
			c0.156,0.145,0.234,0.326,0.234,0.543c0,0.205-0.078,0.383-0.234,0.529S27.698,54.267,27.473,54.267z M28.131,61.354h-1.328
			v-5.857h1.328V61.354z"/>
		<path fill="#124B90" d="M32.708,61.491c-0.904,0-1.626-0.273-2.166-0.82s-0.81-1.273-0.81-2.176c0-0.984,0.281-1.754,0.844-2.307
			s1.321-0.828,2.274-0.828c0.916,0,1.628,0.268,2.14,0.807c0.511,0.537,0.767,1.283,0.767,2.236c0,0.934-0.275,1.682-0.827,2.244
			S33.639,61.491,32.708,61.491z M32.771,56.419c-0.519,0-0.929,0.18-1.23,0.543c-0.302,0.361-0.452,0.861-0.452,1.498
			c0,0.613,0.152,1.098,0.458,1.449c0.305,0.354,0.713,0.529,1.225,0.529c0.522,0,0.924-0.174,1.204-0.52
			c0.28-0.348,0.42-0.842,0.42-1.482c0-0.645-0.14-1.141-0.42-1.492S33.294,56.419,32.771,56.419z"/>
		<path fill="#124B90" d="M42.279,61.354h-1.327v-3.301c0-1.094-0.387-1.641-1.162-1.641c-0.404,0-0.738,0.15-1.001,0.453
			c-0.263,0.305-0.395,0.686-0.395,1.148v3.34h-1.333v-5.857h1.333v0.973h0.023c0.438-0.74,1.072-1.109,1.899-1.109
			c0.637,0,1.124,0.207,1.459,0.619c0.336,0.414,0.503,1.012,0.503,1.795V61.354z"/>
		<path fill="#124B90" d="M48.603,61.491c-0.904,0-1.626-0.273-2.166-0.82s-0.81-1.273-0.81-2.176c0-0.984,0.281-1.754,0.844-2.307
			s1.321-0.828,2.274-0.828c0.916,0,1.628,0.268,2.14,0.807c0.511,0.537,0.767,1.283,0.767,2.236c0,0.934-0.275,1.682-0.827,2.244
			S49.534,61.491,48.603,61.491z M48.666,56.419c-0.519,0-0.929,0.18-1.23,0.543c-0.302,0.361-0.452,0.861-0.452,1.498
			c0,0.613,0.152,1.098,0.458,1.449c0.305,0.354,0.713,0.529,1.225,0.529c0.522,0,0.924-0.174,1.204-0.52
			c0.28-0.348,0.42-0.842,0.42-1.482c0-0.645-0.14-1.141-0.42-1.492S49.189,56.419,48.666,56.419z"/>
		<path fill="#124B90" d="M56.269,53.765c-0.18-0.104-0.383-0.154-0.612-0.154c-0.645,0-0.967,0.363-0.967,1.092v0.795h1.361v1.041
			h-1.356v4.816h-1.327v-4.816h-1.001v-1.041h1.001v-0.949c0-0.617,0.202-1.105,0.606-1.461c0.404-0.357,0.91-0.535,1.516-0.535
			c0.328,0,0.587,0.035,0.778,0.109V53.765z"/>
		<path fill="#124B90" d="M60.248,61.354v-8.203h2.369c3.024,0,4.537,1.334,4.537,3.998c0,1.268-0.42,2.283-1.259,3.053
			c-0.839,0.768-1.964,1.152-3.375,1.152H60.248z M61.604,54.308v5.896h1.087c0.958,0,1.702-0.264,2.234-0.789
			c0.532-0.525,0.798-1.27,0.798-2.23c0-1.918-0.994-2.877-2.98-2.877H61.604z"/>
		<path fill="#124B90" d="M68.822,54.267c-0.217,0-0.403-0.07-0.558-0.211c-0.155-0.141-0.232-0.32-0.232-0.537
			s0.077-0.398,0.232-0.543c0.154-0.146,0.34-0.219,0.558-0.219c0.225,0,0.416,0.072,0.572,0.219
			c0.156,0.145,0.234,0.326,0.234,0.543c0,0.205-0.078,0.383-0.234,0.529S69.047,54.267,68.822,54.267z M69.48,61.354h-1.328v-5.857
			h1.328V61.354z"/>
		<path fill="#124B90" d="M75.956,61.354h-1.287v-0.916h-0.023c-0.404,0.701-0.998,1.053-1.779,1.053
			c-0.576,0-1.027-0.156-1.353-0.469c-0.326-0.313-0.489-0.727-0.489-1.242c0-1.105,0.637-1.75,1.911-1.932l1.739-0.246
			c0-0.836-0.396-1.254-1.19-1.254c-0.698,0-1.327,0.24-1.888,0.721v-1.16c0.618-0.367,1.331-0.549,2.14-0.549
			c1.479,0,2.22,0.729,2.22,2.184V61.354z M74.675,58.478l-1.23,0.172c-0.381,0.049-0.668,0.141-0.861,0.277
			c-0.193,0.135-0.289,0.371-0.289,0.711c0,0.248,0.089,0.451,0.266,0.609s0.415,0.238,0.712,0.238c0.404,0,0.739-0.143,1.004-0.428
			c0.265-0.283,0.397-0.641,0.397-1.072V58.478z"/>
		<path fill="#124B90" d="M78.621,60.507h-0.023v0.848H77.27v-8.672h1.328v3.844h0.023c0.454-0.777,1.117-1.166,1.991-1.166
			c0.74,0,1.319,0.262,1.736,0.785c0.418,0.525,0.626,1.229,0.626,2.109c0,0.979-0.234,1.764-0.704,2.354
			c-0.469,0.588-1.11,0.883-1.922,0.883C79.586,61.491,79.01,61.163,78.621,60.507z M78.586,58.179v0.727
			c0,0.428,0.136,0.791,0.409,1.088c0.272,0.297,0.619,0.445,1.039,0.445c0.492,0,0.878-0.191,1.158-0.574
			c0.281-0.383,0.421-0.918,0.421-1.605c0-0.574-0.131-1.025-0.392-1.352s-0.615-0.488-1.062-0.488
			c-0.473,0-0.853,0.166-1.141,0.502S78.586,57.677,78.586,58.179z"/>
		<path fill="#124B90" d="M89.256,58.786h-3.993c0.015,0.541,0.182,0.959,0.5,1.252c0.318,0.295,0.756,0.441,1.313,0.441
			c0.625,0,1.199-0.188,1.722-0.561v1.068c-0.534,0.336-1.24,0.504-2.117,0.504c-0.862,0-1.538-0.266-2.028-0.797
			c-0.49-0.533-0.735-1.281-0.735-2.246c0-0.91,0.27-1.654,0.81-2.229c0.54-0.572,1.21-0.859,2.011-0.859
			c0.801,0,1.42,0.258,1.859,0.771c0.438,0.516,0.658,1.23,0.658,2.145V58.786z M87.974,57.849
			c-0.003-0.477-0.116-0.848-0.337-1.113s-0.526-0.396-0.916-0.396c-0.381,0-0.705,0.139-0.97,0.416
			c-0.265,0.279-0.428,0.643-0.489,1.094H87.974z"/>
		<path fill="#124B90" d="M93.95,61.292c-0.26,0.129-0.601,0.193-1.024,0.193c-1.137,0-1.705-0.545-1.705-1.635v-3.313h-0.978
			v-1.041h0.978v-1.355l1.328-0.377v1.732h1.402v1.041h-1.402v2.928c0,0.348,0.063,0.596,0.189,0.744
			c0.125,0.148,0.335,0.223,0.629,0.223c0.225,0,0.42-0.064,0.584-0.193V61.292z"/>
		<path fill="#124B90" d="M99.902,58.786h-3.994c0.015,0.541,0.182,0.959,0.5,1.252c0.318,0.295,0.756,0.441,1.313,0.441
			c0.626,0,1.2-0.188,1.723-0.561v1.068c-0.534,0.336-1.24,0.504-2.117,0.504c-0.862,0-1.538-0.266-2.028-0.797
			c-0.49-0.533-0.735-1.281-0.735-2.246c0-0.91,0.27-1.654,0.81-2.229c0.54-0.572,1.21-0.859,2.011-0.859
			c0.801,0,1.421,0.258,1.859,0.771c0.438,0.516,0.658,1.23,0.658,2.145V58.786z M98.62,57.849
			c-0.004-0.477-0.116-0.848-0.337-1.113c-0.222-0.266-0.526-0.396-0.916-0.396c-0.381,0-0.705,0.139-0.97,0.416
			c-0.265,0.279-0.428,0.643-0.489,1.094H98.62z"/>
		<path fill="#124B90" d="M101.14,61.171v-1.23c0.495,0.379,1.043,0.566,1.642,0.566c0.801,0,1.201-0.236,1.201-0.709
			c0-0.133-0.034-0.246-0.103-0.34s-0.161-0.176-0.277-0.248s-0.254-0.139-0.412-0.195s-0.335-0.121-0.529-0.195
			c-0.24-0.094-0.457-0.195-0.649-0.303c-0.192-0.105-0.353-0.227-0.48-0.363c-0.128-0.135-0.224-0.289-0.289-0.459
			c-0.064-0.172-0.097-0.373-0.097-0.602c0-0.281,0.066-0.531,0.2-0.746c0.133-0.215,0.313-0.396,0.537-0.543
			c0.226-0.146,0.48-0.258,0.767-0.332s0.582-0.111,0.887-0.111c0.542,0,1.026,0.082,1.454,0.246v1.16
			c-0.412-0.281-0.886-0.424-1.419-0.424c-0.168,0-0.32,0.018-0.455,0.053c-0.136,0.033-0.251,0.082-0.347,0.143
			c-0.095,0.061-0.169,0.135-0.223,0.221s-0.08,0.18-0.08,0.283c0,0.125,0.026,0.232,0.08,0.32s0.133,0.164,0.237,0.23
			s0.23,0.129,0.378,0.184c0.146,0.055,0.315,0.115,0.506,0.18c0.252,0.104,0.478,0.209,0.678,0.314
			c0.2,0.107,0.371,0.229,0.513,0.363c0.141,0.137,0.25,0.293,0.326,0.469c0.076,0.178,0.114,0.389,0.114,0.633
			c0,0.297-0.068,0.557-0.206,0.777c-0.138,0.223-0.32,0.404-0.549,0.549c-0.229,0.146-0.493,0.254-0.793,0.324
			s-0.615,0.105-0.946,0.105C102.164,61.491,101.609,61.384,101.14,61.171z"/>
		<path fill="#124B90" d="M114.125,54.308h-2.357v7.047h-1.361v-7.047h-2.352v-1.156h6.07V54.308z"/>
		<path fill="#124B90" d="M118.249,56.761c-0.16-0.125-0.392-0.188-0.692-0.188c-0.394,0-0.721,0.176-0.984,0.531
			c-0.263,0.354-0.395,0.836-0.395,1.447v2.803h-1.327v-5.857h1.327v1.207h0.022c0.13-0.412,0.329-0.732,0.599-0.965
			c0.269-0.23,0.568-0.346,0.9-0.346c0.24,0,0.424,0.037,0.55,0.109V56.761z"/>
		<path fill="#124B90" d="M123.427,61.354h-1.288v-0.916h-0.022c-0.404,0.701-0.998,1.053-1.779,1.053
			c-0.576,0-1.027-0.156-1.354-0.469s-0.489-0.727-0.489-1.242c0-1.105,0.638-1.75,1.911-1.932l1.739-0.246
			c0-0.836-0.396-1.254-1.189-1.254c-0.698,0-1.328,0.24-1.889,0.721v-1.16c0.618-0.367,1.331-0.549,2.14-0.549
			c1.48,0,2.221,0.729,2.221,2.184V61.354z M122.144,58.478l-1.229,0.172c-0.382,0.049-0.669,0.141-0.861,0.277
			c-0.192,0.135-0.289,0.371-0.289,0.711c0,0.248,0.089,0.451,0.266,0.609c0.178,0.158,0.415,0.238,0.713,0.238
			c0.404,0,0.738-0.143,1.004-0.428c0.265-0.283,0.397-0.641,0.397-1.072V58.478z"/>
		<path fill="#124B90" d="M129.958,61.354h-1.328v-3.301c0-1.094-0.387-1.641-1.161-1.641c-0.404,0-0.738,0.15-1.001,0.453
			c-0.264,0.305-0.395,0.686-0.395,1.148v3.34h-1.333v-5.857h1.333v0.973h0.022c0.438-0.74,1.072-1.109,1.899-1.109
			c0.637,0,1.123,0.207,1.459,0.619c0.336,0.414,0.504,1.012,0.504,1.795V61.354z"/>
		<path fill="#124B90" d="M131.176,61.171v-1.23c0.495,0.379,1.043,0.566,1.642,0.566c0.801,0,1.201-0.236,1.201-0.709
			c0-0.133-0.034-0.246-0.103-0.34s-0.161-0.176-0.277-0.248s-0.254-0.139-0.412-0.195s-0.335-0.121-0.529-0.195
			c-0.24-0.094-0.457-0.195-0.649-0.303c-0.192-0.105-0.353-0.227-0.48-0.363c-0.128-0.135-0.224-0.289-0.289-0.459
			c-0.064-0.172-0.097-0.373-0.097-0.602c0-0.281,0.066-0.531,0.2-0.746c0.133-0.215,0.313-0.396,0.537-0.543
			c0.226-0.146,0.48-0.258,0.767-0.332s0.582-0.111,0.887-0.111c0.542,0,1.026,0.082,1.454,0.246v1.16
			c-0.412-0.281-0.886-0.424-1.419-0.424c-0.168,0-0.32,0.018-0.455,0.053c-0.136,0.033-0.251,0.082-0.347,0.143
			c-0.095,0.061-0.169,0.135-0.223,0.221s-0.08,0.18-0.08,0.283c0,0.125,0.026,0.232,0.08,0.32s0.133,0.164,0.237,0.23
			s0.23,0.129,0.378,0.184c0.146,0.055,0.315,0.115,0.506,0.18c0.252,0.104,0.478,0.209,0.678,0.314
			c0.2,0.107,0.371,0.229,0.513,0.363c0.141,0.137,0.25,0.293,0.326,0.469c0.076,0.178,0.114,0.389,0.114,0.633
			c0,0.297-0.068,0.557-0.206,0.777c-0.138,0.223-0.32,0.404-0.549,0.549c-0.229,0.146-0.493,0.254-0.793,0.324
			s-0.615,0.105-0.946,0.105C132.199,61.491,131.644,61.384,131.176,61.171z"/>
		<path fill="#124B90" d="M137.939,61.354h-1.333v-8.672h1.333V61.354z"/>
		<path fill="#124B90" d="M144.41,61.354h-1.288v-0.916h-0.022c-0.404,0.701-0.998,1.053-1.779,1.053
			c-0.576,0-1.027-0.156-1.354-0.469s-0.489-0.727-0.489-1.242c0-1.105,0.638-1.75,1.911-1.932l1.739-0.246
			c0-0.836-0.396-1.254-1.189-1.254c-0.698,0-1.328,0.24-1.889,0.721v-1.16c0.618-0.367,1.331-0.549,2.14-0.549
			c1.48,0,2.221,0.729,2.221,2.184V61.354z M143.128,58.478l-1.229,0.172c-0.382,0.049-0.669,0.141-0.861,0.277
			c-0.192,0.135-0.289,0.371-0.289,0.711c0,0.248,0.089,0.451,0.266,0.609c0.178,0.158,0.415,0.238,0.713,0.238
			c0.404,0,0.738-0.143,1.004-0.428c0.265-0.283,0.397-0.641,0.397-1.072V58.478z"/>
		<path fill="#124B90" d="M148.813,61.292c-0.259,0.129-0.601,0.193-1.023,0.193c-1.137,0-1.705-0.545-1.705-1.635v-3.313h-0.979
			v-1.041h0.979v-1.355l1.327-0.377v1.732h1.401v1.041h-1.401v2.928c0,0.348,0.063,0.596,0.188,0.744s0.336,0.223,0.63,0.223
			c0.225,0,0.419-0.064,0.583-0.193V61.292z"/>
		<path fill="#124B90" d="M150.474,54.267c-0.218,0-0.403-0.07-0.558-0.211s-0.231-0.32-0.231-0.537s0.077-0.398,0.231-0.543
			c0.154-0.146,0.34-0.219,0.558-0.219c0.226,0,0.416,0.072,0.572,0.219c0.156,0.145,0.234,0.326,0.234,0.543
			c0,0.205-0.078,0.383-0.234,0.529S150.7,54.267,150.474,54.267z M151.133,61.354h-1.327v-5.857h1.327V61.354z"/>
		<path fill="#124B90" d="M155.709,61.491c-0.903,0-1.625-0.273-2.165-0.82s-0.81-1.273-0.81-2.176c0-0.984,0.281-1.754,0.844-2.307
			s1.32-0.828,2.274-0.828c0.915,0,1.629,0.268,2.14,0.807c0.511,0.537,0.767,1.283,0.767,2.236c0,0.934-0.275,1.682-0.826,2.244
			C157.381,61.21,156.639,61.491,155.709,61.491z M155.772,56.419c-0.519,0-0.929,0.18-1.23,0.543
			c-0.301,0.361-0.452,0.861-0.452,1.498c0,0.613,0.153,1.098,0.458,1.449c0.306,0.354,0.713,0.529,1.225,0.529
			c0.522,0,0.924-0.174,1.204-0.52c0.28-0.348,0.421-0.842,0.421-1.482c0-0.645-0.141-1.141-0.421-1.492
			S156.295,56.419,155.772,56.419z"/>
		<path fill="#124B90" d="M165.28,61.354h-1.328v-3.301c0-1.094-0.387-1.641-1.161-1.641c-0.404,0-0.738,0.15-1.001,0.453
			c-0.264,0.305-0.395,0.686-0.395,1.148v3.34h-1.333v-5.857h1.333v0.973h0.022c0.438-0.74,1.072-1.109,1.899-1.109
			c0.637,0,1.123,0.207,1.459,0.619c0.336,0.414,0.504,1.012,0.504,1.795V61.354z"/>
		<path fill="#124B90" d="M168.106,59.987l-0.684,1.992h-0.996l0.427-1.992H168.106z"/>
		<path fill="#124B90" d="M178.571,61.011c-0.618,0.32-1.387,0.48-2.306,0.48c-1.19,0-2.144-0.375-2.861-1.127
			c-0.717-0.75-1.075-1.736-1.075-2.957c0-1.311,0.403-2.371,1.21-3.18s1.826-1.213,3.058-1.213c0.794,0,1.451,0.113,1.975,0.338
			v1.35c-0.554-0.328-1.164-0.492-1.831-0.492c-0.889,0-1.608,0.285-2.16,0.852c-0.551,0.568-0.826,1.328-0.826,2.277
			c0,0.904,0.257,1.623,0.772,2.158c0.515,0.537,1.191,0.805,2.03,0.805c0.774,0,1.446-0.184,2.015-0.549V61.011z"/>
		<path fill="#124B90" d="M180.174,61.354v-8.203h2.368c3.025,0,4.537,1.334,4.537,3.998c0,1.268-0.419,2.283-1.259,3.053
			c-0.839,0.768-1.964,1.152-3.375,1.152H180.174z M181.529,54.308v5.896h1.088c0.957,0,1.702-0.264,2.233-0.789
			c0.532-0.525,0.799-1.27,0.799-2.23c0-1.918-0.994-2.877-2.981-2.877H181.529z"/>
		<path fill="#124B90" d="M193.948,61.011c-0.618,0.32-1.387,0.48-2.306,0.48c-1.19,0-2.144-0.375-2.861-1.127
			c-0.717-0.75-1.075-1.736-1.075-2.957c0-1.311,0.403-2.371,1.21-3.18s1.826-1.213,3.058-1.213c0.794,0,1.451,0.113,1.975,0.338
			v1.35c-0.554-0.328-1.164-0.492-1.831-0.492c-0.889,0-1.608,0.285-2.16,0.852c-0.551,0.568-0.826,1.328-0.826,2.277
			c0,0.904,0.257,1.623,0.772,2.158c0.515,0.537,1.191,0.805,2.03,0.805c0.774,0,1.446-0.184,2.015-0.549V61.011z"/>
	</g>
</g>
</svg>
