<svg id="svg1195" width="5.1rem" height="3.3rem" enable-background="new 0 0 194.314 62.659" version="1.1" viewBox="0 0 82 53" xmlns="http://www.w3.org/2000/svg">
 <g id="g1117" transform="translate(-10 .81)">
  <g id="g1011">
   <path id="path1009" d="m91 4.4c-0.53 1.8-1.9 2.7-2.9 4 0.33 1.3 0.97 2.3 1.3 3.6-1.1 1.7-3.7 1.9-5 3.8 1.4 1.9-0.82 4.7-0.38 7.9 0.11 0.82 0.68 1.3 0.96 2.1-0.18 0.97-0.72 1.6-0.77 2.7-1.4 0.48-1.8 2.1-3.1 2.7-0.32 1.2-0.73 2.3-1.9 2.7-0.41 1.2-1.1 2.1-0.96 3.4 0.16 1.5 1.5 2.7 2.3 3.5 0.52 1.8 4.2 7.3-0.19 7.5-1.5-2.3-4.1-3.5-4.4-6.9-0.67-0.36-1.3-0.74-1.7-1.3-0.75 0.33-1.5 0.69-2.1 1.1-1.6-2-4.1-0.28-6.3-0.38-0.28 1.2 0.62 1.3 0.57 2.3-0.46 0.4-1.4 0.57-1.5-0.19-0.28 0.55-1.3 0.38-1.9 0.58-0.85 0.14-0.79-0.62-1.3-0.77-1.2 0.79-2.3-0.098-3.4 0.19-1.7 0.43-1.9 3.2-4 3.1-1.2 1.2-1.1 3.6 0 4.8-1.7-0.041-3.3 0.2-4.4-0.58-0.52-0.36-0.65-1.3-1.1-2.1-0.41-0.64-1.3-1.2-1.7-1.9-0.64-1-0.86-2.7-2.9-2.3-0.66 0.36-0.61 1.4-1.3 1.7-1.3-0.19-2-1.1-2.9-1.7-7e-3 -2-1.7-2.4-2.5-3.6-0.98 0.15-1.4-0.27-2.3-0.19-0.52-0.14 0.14 0.9-0.38 0.77-7.2 1.1-8.3-4-15-3.6-0.27-3.1-2.8-3.9-4.8-5.2 0.11-2-0.95-2.9-1.5-4.2 0.11-2-0.72-4.2-1.5-5.9 0.47-1.1 0.035-2.5-0.19-3.4-0.021-0.92 0.78-1 0.96-1.7-0.3-4.7 2.5-6.9 2.9-11 0.095-1.2-0.41-2.2 0.38-3.4 0.75-0.41 1 1.1 2.1 0.96 0.71-0.14-0.015-0.96 0-1.5 9.4 3.5 21 4.8 34 4.6 0.53 0.086 1.4-0.36 1.7 0.19 2.5-0.13 3.8 1.1 6.7 0.77 0.81 0.3-0.44 0.92-0.65 1.6 1.4 0.89 1.2-0.93 2.6-1.2 0.91 0.8-0.17 1.3 0.96 1.9 1.1-0.32 1.8-0.97 3.1-1.2-0.2 0.64 0.59 0.3 0.96 0.38 0.021 0.98 1.9 1.1 0.96 1.9 0.99 0.037 1.2 0.85 1.3 1.7 1.5 0.83 2.5 3.1 1.3 5 1.9 0.27 3.1-1.9 4.4-2.9 0.21-0.72-0.48-0.55-0.38-1.2 0.76-0.9 2.5-0.78 3.4-1.5-0.77-1.4 0.69-2.4 1.1-3.6 2.1-0.53 4.2-1.1 5.2-2.7-0.49-1.2-0.42-2.8-0.19-4.2 1.3 0.065 1.8-0.9 3.1-0.19 0.24 0.85 0.74 1.4 0.96 2.3 1.1 0.17 1.3 0.48 2.1 1.2zm-2.9 6.9c-9e-3 -0.88 0.11-1.9-0.39-2.3-0.02 0.92-8e-3 1.8 0.39 2.3zm-23 6.9c0.9-1.7-0.82-3.7-0.38-5.4 0.21-0.8 1.2-1.2 1.1-1.9-1.9 0.87-2.3 5.9-0.76 7.3zm-1.2-5.4c0.17-0.031 0.1-1.1-0.19-0.38-0.051 0.11 0.078 0.4 0.19 0.38z" style="fill:#a0c8ea"/>
  </g>
  <g id="g1111" transform="translate(15 -5.3)" enable-background="new    ">
   <path id="path1101" d="m13 31c0 4.5-2.1 6.8-6.3 6.8-4.1 0-6.2-2.2-6.2-6.7v-8.7h3.4v8.8c0 2.4 0.95 3.7 2.9 3.7 1.9 0 2.8-1.2 2.8-3.5v-8.9h3.4z" style="fill:#124b90"/>
   <path id="path1103" d="m15 37v-3.4c0.61 0.51 1.3 0.9 2 1.2 0.72 0.26 1.4 0.38 2.2 0.38 0.43 0 0.8-0.039 1.1-0.12 0.32-0.076 0.59-0.18 0.8-0.32 0.21-0.14 0.37-0.3 0.48-0.48 0.1-0.19 0.16-0.39 0.16-0.6 0-0.3-0.084-0.56-0.25-0.79-0.17-0.23-0.4-0.44-0.69-0.64-0.29-0.2-0.64-0.39-1-0.57-0.4-0.18-0.83-0.37-1.3-0.56-1.2-0.49-2.1-1.1-2.6-1.8-0.58-0.71-0.87-1.6-0.87-2.6 0-0.79 0.16-1.5 0.48-2 0.32-0.56 0.75-1 1.3-1.4 0.54-0.36 1.2-0.63 1.9-0.81 0.72-0.17 1.5-0.26 2.3-0.26 0.79 0 1.5 0.048 2.1 0.14 0.61 0.095 1.2 0.24 1.7 0.44v3.2c-0.25-0.18-0.53-0.33-0.83-0.46-0.3-0.14-0.61-0.24-0.92-0.33-0.31-0.088-0.63-0.15-0.94-0.2-0.31-0.042-0.61-0.063-0.89-0.063-0.39 0-0.74 0.037-1.1 0.11-0.32 0.073-0.58 0.18-0.8 0.31-0.22 0.13-0.39 0.29-0.51 0.48-0.12 0.19-0.18 0.4-0.18 0.63 0 0.25 0.067 0.48 0.2 0.68 0.13 0.2 0.32 0.39 0.57 0.57s0.54 0.35 0.9 0.52c0.35 0.17 0.75 0.35 1.2 0.53 0.6 0.25 1.1 0.52 1.6 0.81 0.48 0.28 0.9 0.6 1.2 0.96 0.34 0.36 0.61 0.77 0.79 1.2 0.18 0.46 0.27 0.99 0.27 1.6 0 0.84-0.16 1.6-0.48 2.1-0.32 0.57-0.75 1-1.3 1.4-0.55 0.35-1.2 0.61-1.9 0.76-0.73 0.16-1.5 0.23-2.3 0.23-0.83 0-1.6-0.07-2.4-0.21-0.75-0.14-1.4-0.35-1.9-0.64z" style="fill:#124b90"/>
   <path id="path1105" d="m28 37v-15h5.4c5.4 0 8.1 2.5 8.1 7.4 0 2.4-0.73 4.2-2.2 5.6-1.5 1.4-3.4 2.1-5.9 2.1zm3.4-12v9.6h1.7c1.5 0 2.6-0.44 3.5-1.3 0.84-0.88 1.3-2.1 1.3-3.6 0-1.4-0.42-2.6-1.2-3.4-0.83-0.83-2-1.2-3.5-1.2z" style="fill:#124b90"/>
   <path id="path1107" d="m43 37v-3.4c0.61 0.51 1.3 0.9 2 1.2 0.72 0.26 1.4 0.38 2.2 0.38 0.43 0 0.8-0.039 1.1-0.12 0.32-0.076 0.59-0.18 0.8-0.32 0.21-0.14 0.37-0.3 0.48-0.48 0.1-0.19 0.16-0.39 0.16-0.6 0-0.3-0.084-0.56-0.25-0.79-0.17-0.23-0.4-0.44-0.69-0.64-0.29-0.2-0.64-0.39-1-0.57-0.4-0.18-0.83-0.37-1.3-0.56-1.2-0.49-2.1-1.1-2.6-1.8-0.58-0.71-0.87-1.6-0.87-2.6 0-0.79 0.16-1.5 0.48-2s0.75-1 1.3-1.4c0.54-0.36 1.2-0.63 1.9-0.81 0.72-0.17 1.5-0.26 2.3-0.26 0.79 0 1.5 0.048 2.1 0.14 0.61 0.095 1.2 0.24 1.7 0.44v3.2c-0.25-0.18-0.53-0.33-0.83-0.46-0.3-0.14-0.6-0.24-0.92-0.33s-0.63-0.15-0.94-0.2-0.61-0.063-0.89-0.063c-0.39 0-0.74 0.037-1.1 0.11-0.32 0.073-0.58 0.18-0.8 0.31-0.22 0.13-0.39 0.29-0.51 0.48-0.12 0.19-0.18 0.4-0.18 0.63 0 0.25 0.067 0.48 0.2 0.68 0.13 0.2 0.32 0.39 0.57 0.57 0.25 0.18 0.54 0.35 0.9 0.52 0.35 0.17 0.75 0.35 1.2 0.53 0.6 0.25 1.1 0.52 1.6 0.81 0.48 0.28 0.9 0.6 1.2 0.96 0.35 0.36 0.61 0.77 0.79 1.2 0.18 0.46 0.27 0.99 0.27 1.6 0 0.84-0.16 1.6-0.48 2.1-0.32 0.57-0.75 1-1.3 1.4-0.55 0.35-1.2 0.61-1.9 0.76-0.73 0.16-1.5 0.23-2.3 0.23-0.83 0-1.6-0.07-2.4-0.21-0.75-0.14-1.4-0.35-1.9-0.64z" style="fill:#124b90"/>
   <path id="path1109" d="m56 37v-3.4c0.61 0.51 1.3 0.9 2 1.2 0.72 0.26 1.4 0.38 2.2 0.38 0.43 0 0.8-0.039 1.1-0.12 0.32-0.076 0.59-0.18 0.8-0.32 0.21-0.14 0.37-0.3 0.48-0.48 0.1-0.19 0.16-0.39 0.16-0.6 0-0.3-0.084-0.56-0.25-0.79-0.17-0.23-0.4-0.44-0.69-0.64-0.29-0.2-0.64-0.39-1-0.57-0.4-0.18-0.83-0.37-1.3-0.56-1.2-0.49-2.1-1.1-2.6-1.8-0.58-0.71-0.87-1.6-0.87-2.6 0-0.79 0.16-1.5 0.48-2 0.32-0.56 0.75-1 1.3-1.4 0.54-0.36 1.2-0.63 1.9-0.81 0.72-0.17 1.5-0.26 2.3-0.26 0.79 0 1.5 0.048 2.1 0.14 0.61 0.095 1.2 0.24 1.7 0.44v3.2c-0.25-0.18-0.53-0.33-0.83-0.46-0.3-0.14-0.61-0.24-0.92-0.33-0.31-0.088-0.63-0.15-0.94-0.2-0.31-0.042-0.61-0.063-0.89-0.063-0.39 0-0.74 0.037-1.1 0.11-0.32 0.073-0.58 0.18-0.8 0.31-0.22 0.13-0.39 0.29-0.51 0.48-0.12 0.19-0.18 0.4-0.18 0.63 0 0.25 0.067 0.48 0.2 0.68 0.13 0.2 0.32 0.39 0.57 0.57s0.54 0.35 0.9 0.52c0.35 0.17 0.75 0.35 1.2 0.53 0.6 0.25 1.1 0.52 1.6 0.81 0.48 0.28 0.9 0.6 1.2 0.96 0.34 0.36 0.61 0.77 0.79 1.2 0.18 0.46 0.27 0.99 0.27 1.6 0 0.84-0.16 1.6-0.48 2.1-0.32 0.57-0.75 1-1.3 1.4-0.55 0.35-1.2 0.61-1.9 0.76-0.73 0.16-1.5 0.23-2.3 0.23-0.83 0-1.6-0.07-2.4-0.21-0.75-0.14-1.4-0.35-1.9-0.64z" style="fill:#124b90"/>
  </g>
 </g>
</svg>
